# This file uses centimeters as units for non-parametric coordinates.

mtllib BobaCup.mtl
g default
v 6.249492 3.099420 2.079493
v 6.070430 3.099420 2.038623
v 5.926834 3.099420 2.153137
v 5.926834 3.099420 2.336803
v 6.070430 3.099420 2.451317
v 6.249492 3.099420 2.410448
v 6.329181 3.099420 2.244970
v 6.308166 4.218431 1.999570
v 6.042622 4.218431 1.938961
v 5.829671 4.218431 2.108783
v 5.829671 4.218431 2.381157
v 6.042622 4.218431 2.550979
v 6.308166 4.218431 2.490370
v 6.426344 4.218431 2.244970
v 6.117527 3.099420 2.244970
v 6.310853 4.173185 1.995909
v 6.430795 4.173185 2.244970
v 6.310853 4.173185 2.494031
v 6.041348 4.173185 2.555544
v 5.825221 4.173185 2.383188
v 5.825221 4.173185 2.106752
v 6.041348 4.173185 1.934396
v 6.372736 4.179368 1.906877
v 6.344631 4.184801 1.944888
v 6.487117 4.184801 2.244970
v 6.533271 4.179368 2.244970
v 6.321256 4.239532 1.975241
v 6.354529 4.227917 1.947659
v 6.372736 4.205114 1.906877
v 6.533271 4.205114 2.244970
v 6.503511 4.227917 2.244970
v 6.449330 4.239532 2.244970
v 6.344631 4.184801 2.545052
v 6.372736 4.179368 2.583063
v 6.372736 4.205114 2.583063
v 6.354529 4.227917 2.542281
v 6.321256 4.239532 2.514699
v 6.024653 4.184801 2.619124
v 6.012018 4.179368 2.666566
v 6.012018 4.205114 2.666566
v 6.019961 4.227917 2.615669
v 6.034078 4.239532 2.581178
v 5.767984 4.184801 2.411527
v 5.722745 4.179368 2.432598
v 5.722745 4.205114 2.432598
v 5.751590 4.227917 2.409989
v 5.803563 4.239532 2.394735
v 5.767984 4.184801 2.078413
v 5.722745 4.179368 2.057342
v 5.722745 4.205114 2.057342
v 5.751590 4.227917 2.079952
v 5.803563 4.239532 2.095205
v 6.024653 4.184801 1.870816
v 6.012018 4.179368 1.823374
v 6.012018 4.205114 1.823374
v 6.019961 4.227917 1.874271
v 6.034078 4.239532 1.908762
v 6.190944 3.228921 2.159243
v 6.098179 3.228921 2.138070
v 6.122579 3.228921 2.244970
v 6.023787 3.228921 2.197395
v 6.023787 3.228921 2.292546
v 6.098179 3.228921 2.351871
v 6.190944 3.228921 2.330698
v 6.232228 3.228921 2.244970
v 6.282788 3.515680 2.034138
v 6.384319 3.515680 2.244970
v 6.282788 3.515680 2.455802
v 6.054649 3.515680 2.507873
v 5.871696 3.515680 2.361973
v 5.871696 3.515680 2.127967
v 6.054649 3.515680 1.982067
v 6.264188 3.127171 2.059474
v 6.063465 3.127171 2.013661
v 6.059370 3.487929 1.998986
v 6.272827 3.487929 2.047706
v 5.902498 3.127171 2.142028
v 5.888191 3.487929 2.135497
v 5.902498 3.127171 2.347912
v 5.888191 3.487929 2.354443
v 6.063465 3.127171 2.476279
v 6.059370 3.487929 2.490954
v 6.264188 3.127171 2.430466
v 6.272827 3.487929 2.442234
v 6.353518 3.127171 2.244970
v 6.367825 3.487929 2.244970
vt 0.198976 0.044202
vt 0.104195 0.022569
vt 0.028187 0.083183
vt 0.028187 0.180401
vt 0.104196 0.241016
vt 0.198976 0.219383
vt 0.241157 0.131792
vt 0.205304 0.345613
vt 0.278349 0.379743
vt 0.358692 0.397796
vt 0.442495 0.405036
vt 0.527371 0.402720
vt 0.610680 0.392113
vt 0.690640 0.371896
vt 0.766889 0.337341
vt 0.349003 0.375150
vt 0.437525 0.386657
vt 0.526687 0.382353
vt 0.613575 0.361883
vt 0.695281 0.325931
vt 0.769356 0.276118
vt 0.263715 0.348799
vt 0.129125 0.131792
vt 0.113465 0.125382
vt 0.049225 0.851224
vt 0.963663 0.890766
vt 0.962651 0.878066
vt 0.814831 0.906473
vt 0.814051 0.895099
vt 0.683738 0.922607
vt 0.683096 0.911133
vt 0.557283 0.933396
vt 0.556802 0.921984
vt 0.430488 0.936375
vt 0.430326 0.924886
vt 0.301527 0.932228
vt 0.301650 0.920736
vt 0.174292 0.921480
vt 0.174459 0.910214
vt 0.027606 0.913206
vt 0.932781 0.833765
vt 0.940801 0.947636
vt 0.817038 0.957011
vt 0.947906 0.932859
vt 0.810355 0.855145
vt 0.689381 0.972838
vt 0.816702 0.943980
vt 0.683212 0.867996
vt 0.561660 0.986384
vt 0.686217 0.958906
vt 0.556274 0.875500
vt 0.431774 0.989913
vt 0.560211 0.970701
vt 0.430284 0.879417
vt 0.301211 0.984970
vt 0.432088 0.975459
vt 0.303752 0.874810
vt 0.172393 0.974871
vt 0.301022 0.970052
vt 0.175997 0.865404
vt 0.048587 0.970847
vt 0.172734 0.959013
vt 0.027958 0.900226
vt 0.044485 0.955255
vt 0.037381 0.879075
vt 0.950645 0.858334
vt 0.812588 0.877367
vt 0.032091 0.937431
vt 0.952228 0.912113
vt 0.815641 0.921537
vt 0.682428 0.892425
vt 0.689601 0.941409
vt 0.556251 0.902679
vt 0.556364 0.956373
vt 0.429840 0.905034
vt 0.427313 0.953342
vt 0.301763 0.900304
vt 0.305004 0.949071
vt 0.174544 0.891336
vt 0.175560 0.944310
vt 0.127656 0.142569
vt 0.538068 0.034311
vt 0.509524 0.046871
vt 0.479171 0.054022
vt 0.448023 0.055525
vt 0.417099 0.051506
vt 0.387305 0.042300
vt 0.851472 0.524484
vt 0.123487 0.536984
vt 0.750122 0.557790
vt 0.647095 0.578279
vt 0.541367 0.589418
vt 0.434314 0.591339
vt 0.328011 0.584430
vt 0.223608 0.566962
vt 0.193210 0.358088
vt 0.272364 0.394906
vt 0.227278 0.552980
vt 0.131088 0.522419
vt 0.355517 0.414023
vt 0.330050 0.570490
vt 0.441491 0.421965
vt 0.435045 0.577096
vt 0.528456 0.418962
vt 0.540535 0.575642
vt 0.614049 0.407795
vt 0.644741 0.564608
vt 0.696862 0.386303
vt 0.746455 0.544150
vt 0.779900 0.349556
vt 0.842023 0.510595
vt 0.129319 0.129548
vt 0.563945 0.016910
vt 0.133659 0.115857
vt 0.121503 0.106522
vt 0.102831 0.113081
vt 0.093041 0.134780
vt 0.111284 0.147279
vt 0.184004 0.308617
vt 0.359459 0.028263
vn 0.222368 -0.037107 -0.974256
vn 0.222368 -0.037107 -0.974256
vn 0.222368 -0.037107 -0.974256
vn 0.222368 -0.037107 -0.974256
vn -0.623020 -0.038852 -0.781241
vn -0.623020 -0.038852 -0.781241
vn -0.623020 -0.038852 -0.781241
vn -0.623020 -0.038852 -0.781241
vn -0.999215 -0.039626 0.000000
vn -0.999215 -0.039626 0.000000
vn -0.999215 -0.039626 0.000000
vn -0.999215 -0.039626 0.000000
vn -0.623019 -0.038852 0.781241
vn -0.623019 -0.038852 0.781241
vn -0.623019 -0.038852 0.781241
vn -0.623019 -0.038852 0.781241
vn 0.222368 -0.037107 0.974257
vn 0.222368 -0.037107 0.974257
vn 0.222368 -0.037107 0.974257
vn 0.222368 -0.037107 0.974257
vn 0.900395 -0.035708 0.433607
vn 0.900395 -0.035708 0.433607
vn 0.900394 -0.035708 0.433607
vn 0.900395 -0.035708 0.433607
vn 0.900394 -0.035709 -0.433607
vn 0.900394 -0.035709 -0.433607
vn 0.900394 -0.035709 -0.433607
vn 0.900394 -0.035709 -0.433607
vn 0.000000 -1.000000 -0.000000
vn 0.000000 -1.000000 0.000000
vn 0.000000 -1.000000 -0.000000
vn 0.000000 -1.000000 0.000000
vn 0.000000 -1.000000 0.000000
vn 0.000000 -1.000000 0.000000
vn 0.000000 -1.000000 -0.000002
vn 0.000000 -1.000000 -0.000001
vn 0.000000 1.000000 0.000002
vn 0.000000 1.000000 -0.000001
vn 0.000000 1.000000 0.000001
vn 0.000000 1.000000 0.000001
vn 0.000000 1.000000 0.000000
vn 0.000000 1.000000 0.000002
vn 0.000000 1.000000 0.000001
vn 0.000000 1.000000 0.000002
vn 0.111534 -0.982323 -0.150338
vn 0.198866 -0.980027 0.000001
vn 0.198866 -0.980027 0.000001
vn 0.121022 -0.982100 -0.144335
vn -0.116732 -0.991616 0.055429
vn 0.572082 -0.773910 -0.271635
vn 0.554983 -0.789020 -0.263516
vn -0.116732 -0.991616 0.055429
vn 0.822393 0.410518 -0.393885
vn 0.538414 0.800827 -0.262273
vn 0.538414 0.800826 -0.262273
vn 0.797521 0.466503 -0.382538
vn 0.173874 0.967193 -0.185219
vn 0.000766 0.999999 -0.001582
vn -0.005273 0.999986 0.000001
vn 0.224309 0.974518 0.000002
vn 0.572079 -0.773913 0.271634
vn 0.554980 -0.789023 0.263515
vn 0.797520 0.466505 0.382537
vn 0.822392 0.410520 0.393884
vn 0.139208 -0.786763 0.601353
vn 0.132192 -0.810204 0.571046
vn 0.168558 0.655467 0.736173
vn 0.174255 0.625621 0.760417
vn -0.371850 -0.806449 0.459747
vn -0.363182 -0.816376 0.449030
vn -0.523234 0.547477 0.653066
vn -0.499296 0.601032 0.624071
vn -0.580251 -0.814438 0.000000
vn -0.580253 -0.814437 0.000000
vn -0.914074 0.405547 0.000000
vn -0.914074 0.405547 0.000000
vn -0.363180 -0.816376 -0.449033
vn -0.371848 -0.806448 -0.459750
vn -0.499295 0.601035 -0.624069
vn -0.523233 0.547480 -0.653064
vn 0.132193 -0.810205 -0.571045
vn 0.139209 -0.786763 -0.601352
vn 0.174256 0.625621 -0.760417
vn 0.168559 0.655467 -0.736173
vn -0.404491 0.784934 0.469325
vn -0.662586 0.748986 -0.000001
vn -0.404492 0.784933 -0.469326
vn 0.000766 0.999999 0.001584
vn 0.121723 0.822790 -0.555158
vn 0.009936 0.999909 0.009101
vn 0.521293 0.817377 -0.245252
vn 0.001776 0.999980 0.006007
vn 0.521293 0.817378 0.245250
vn 0.001776 0.999980 -0.006004
vn 0.121724 0.822791 0.555157
vn 0.009936 0.999909 -0.009097
vn 0.111533 -0.982324 0.150337
vn 0.121021 -0.982101 0.144335
vn -0.116731 -0.991616 -0.055429
vn -0.116731 -0.991616 -0.055429
vn 0.538415 0.800826 0.262273
vn 0.538415 0.800826 0.262273
vn 0.173874 0.967192 0.185221
vn -0.041717 -0.984351 0.171209
vn -0.038203 -0.984340 0.172093
vn -0.028033 -0.992244 -0.121101
vn -0.028033 -0.992244 -0.121101
vn 0.098026 0.895358 0.434424
vn 0.098026 0.895358 0.434424
vn -0.077991 0.961327 0.264137
vn -0.159584 -0.984144 0.077422
vn -0.160278 -0.984136 0.076080
vn 0.075657 -0.992737 -0.093541
vn 0.075657 -0.992737 -0.093541
vn -0.305179 0.870072 0.387092
vn -0.305179 0.870072 0.387092
vn -0.202486 0.975909 0.081253
vn -0.159584 -0.984144 -0.077422
vn -0.160279 -0.984135 -0.076080
vn 0.119239 -0.992866 0.000000
vn 0.119239 -0.992866 0.000000
vn -0.620153 0.784481 0.000000
vn -0.620153 0.784481 0.000000
vn -0.202485 0.975909 -0.081249
vn -0.041717 -0.984351 -0.171211
vn -0.038203 -0.984339 -0.172095
vn 0.075656 -0.992738 0.093533
vn 0.075656 -0.992737 0.093533
vn -0.305178 0.870074 -0.387089
vn -0.305178 0.870074 -0.387089
vn -0.077991 0.961328 -0.264131
vn -0.028033 -0.992244 0.121101
vn -0.028033 -0.992244 0.121101
vn 0.098027 0.895358 -0.434425
vn 0.098027 0.895358 -0.434425
vn -0.218860 0.180658 0.958886
vn -0.218860 0.180658 0.958886
vn -0.218860 0.180658 0.958886
vn -0.218860 0.180658 0.958886
vn 0.612268 0.188864 0.767762
vn 0.612268 0.188864 0.767762
vn 0.612268 0.188864 0.767762
vn 0.612268 0.188864 0.767762
vn 0.981296 0.192504 0.000000
vn 0.981296 0.192504 0.000000
vn 0.981296 0.192504 0.000000
vn 0.981296 0.192504 0.000000
vn 0.612268 0.188864 -0.767762
vn 0.612268 0.188864 -0.767762
vn 0.612268 0.188864 -0.767762
vn 0.612268 0.188864 -0.767762
vn -0.218860 0.180658 -0.958886
vn -0.218860 0.180658 -0.958886
vn -0.218860 0.180658 -0.958886
vn -0.218860 0.180658 -0.958886
vn -0.887217 0.174050 -0.427263
vn -0.887217 0.174050 -0.427263
vn -0.887217 0.174050 -0.427263
vn -0.887217 0.174050 -0.427263
vn -0.887217 0.174050 0.427262
vn -0.887217 0.174050 0.427262
vn -0.887217 0.174050 0.427262
vn -0.887217 0.174050 0.427262
vn 0.899147 -0.063557 -0.433007
vn 0.899147 -0.063557 -0.433008
vn 0.899147 -0.063557 -0.433007
vn 0.899147 -0.063557 -0.433008
vn 0.899147 -0.063557 0.433007
vn 0.899147 -0.063557 0.433007
vn 0.899147 -0.063557 0.433007
vn 0.899147 -0.063557 0.433007
vn 0.222036 -0.066039 0.972799
vn 0.222036 -0.066039 0.972799
vn 0.222036 -0.066039 0.972799
vn 0.222036 -0.066039 0.972800
vn -0.621999 -0.069133 0.779960
vn -0.621999 -0.069133 0.779960
vn -0.621999 -0.069133 0.779960
vn -0.621999 -0.069133 0.779960
vn -0.997511 -0.070509 0.000000
vn -0.997511 -0.070509 0.000000
vn -0.997511 -0.070509 0.000000
vn -0.997511 -0.070509 0.000000
vn -0.621999 -0.069133 -0.779960
vn -0.621999 -0.069133 -0.779960
vn -0.621999 -0.069133 -0.779960
vn -0.621999 -0.069133 -0.779960
vn 0.222036 -0.066039 -0.972799
vn 0.222036 -0.066039 -0.972800
vn 0.222036 -0.066039 -0.972800
vn 0.222036 -0.066039 -0.972799
vn 0.171972 -0.634594 -0.753469
vn 0.171972 -0.634594 -0.753469
vn 0.171972 -0.634594 -0.753469
vn 0.171972 -0.634594 -0.753469
vn 0.194438 -0.486294 -0.851888
vn 0.194438 -0.486293 -0.851888
vn 0.194438 -0.486294 -0.851888
vn 0.194438 -0.486294 -0.851888
vn -0.472775 -0.651941 -0.592838
vn -0.472775 -0.651941 -0.592838
vn -0.472775 -0.651941 -0.592838
vn -0.472775 -0.651941 -0.592838
vn -0.538702 -0.503468 -0.675514
vn -0.538702 -0.503468 -0.675514
vn -0.538702 -0.503468 -0.675514
vn -0.538702 -0.503468 -0.675514
vn -0.751836 -0.659350 0.000000
vn -0.751836 -0.659350 0.000000
vn -0.751836 -0.659350 0.000000
vn -0.751836 -0.659350 0.000000
vn -0.859616 -0.510941 0.000000
vn -0.859616 -0.510941 0.000000
vn -0.859616 -0.510941 0.000000
vn -0.859616 -0.510941 0.000000
vn -0.472775 -0.651936 0.592844
vn -0.472775 -0.651936 0.592844
vn -0.472775 -0.651936 0.592844
vn -0.472775 -0.651936 0.592844
vn -0.538701 -0.503469 0.675515
vn -0.538701 -0.503469 0.675515
vn -0.538701 -0.503469 0.675515
vn -0.538701 -0.503469 0.675515
vn 0.171973 -0.634595 0.753468
vn 0.171973 -0.634595 0.753468
vn 0.171973 -0.634595 0.753468
vn 0.171973 -0.634595 0.753468
vn 0.194438 -0.486291 0.851889
vn 0.194438 -0.486291 0.851889
vn 0.194438 -0.486291 0.851889
vn 0.194438 -0.486291 0.851889
vn 0.706930 -0.619961 0.340438
vn 0.706930 -0.619961 0.340438
vn 0.706930 -0.619961 0.340438
vn 0.706930 -0.619961 0.340438
vn 0.794255 -0.472081 0.382491
vn 0.794255 -0.472081 0.382491
vn 0.794255 -0.472081 0.382491
vn 0.794255 -0.472081 0.382491
vn 0.706927 -0.619967 -0.340436
vn 0.706927 -0.619967 -0.340436
vn 0.706927 -0.619967 -0.340436
vn 0.706927 -0.619967 -0.340436
vn 0.794254 -0.472082 -0.382491
vn 0.794254 -0.472082 -0.382491
vn 0.794254 -0.472082 -0.382491
vn 0.794254 -0.472082 -0.382491
s off
g BobaCup
usemtl initialShadingGroup
f 73/96/1 74/97/2 75/98/3 76/99/4
f 74/97/5 77/100/6 78/101/7 75/98/8
f 77/100/9 79/102/10 80/103/11 78/101/12
f 79/102/13 81/104/14 82/105/15 80/103/16
f 81/104/17 83/106/18 84/107/19 82/105/20
f 83/106/21 85/108/22 86/109/23 84/107/24
f 85/108/25 73/110/26 76/111/27 86/109/28
s 1
f 2/2/29 1/1/30 15/23/31
f 3/3/32 2/2/29 15/23/31
f 4/4/33 3/3/32 15/23/31
f 5/5/34 4/4/33 15/23/31
f 6/6/35 5/5/34 15/23/31
f 7/7/36 6/6/35 15/23/31
f 1/1/30 7/7/36 15/23/31
s 2
f 58/81/37 59/118/38 60/24/39
f 59/118/38 61/117/40 60/24/39
f 61/117/40 62/116/41 60/24/39
f 62/116/41 63/115/42 60/24/39
f 63/115/42 64/114/43 60/24/39
f 64/114/43 65/112/44 60/24/39
f 65/112/44 58/81/37 60/24/39
s 3
f 24/66/45 25/67/46 17/45/47 16/41/48
s 4
f 24/66/49 23/27/50 26/29/51 25/67/52
f 29/26/53 28/69/54 31/70/55 30/28/56
s 5
f 28/69/57 27/44/58 32/47/59 31/70/60
s 4
f 26/29/51 23/27/50 29/26/53 30/28/56
s 6
f 34/31/61 26/29/62 30/28/63 35/30/64
s 7
f 39/33/65 34/31/66 35/30/67 40/32/68
s 8
f 44/35/69 39/33/70 40/32/71 45/34/72
s 9
f 49/37/73 44/35/74 45/34/75 50/36/76
s 10
f 54/39/77 49/37/78 50/36/79 55/38/80
s 11
f 23/63/81 54/39/82 55/38/83 29/40/84
s 5
f 8/42/85 14/43/86 32/47/59 27/44/58
f 14/43/86 13/46/87 37/50/88 32/47/59
f 13/46/87 12/49/89 42/53/90 37/50/88
f 12/49/89 11/52/91 47/56/92 42/53/90
f 11/52/91 10/55/93 52/59/94 47/56/92
f 10/55/93 9/58/95 57/62/96 52/59/94
f 9/58/95 8/61/85 27/64/58 57/62/96
s 3
f 25/67/46 33/71/97 18/48/98 17/45/47
s 6
f 25/67/99 26/29/62 34/31/61 33/71/100
f 30/28/63 31/70/101 36/72/102 35/30/64
s 5
f 31/70/60 32/47/59 37/50/88 36/72/103
s 3
f 33/71/97 38/73/104 19/51/105 18/48/98
s 7
f 33/71/106 34/31/66 39/33/65 38/73/107
f 35/30/67 36/72/108 41/74/109 40/32/68
s 5
f 36/72/103 37/50/88 42/53/90 41/74/110
s 3
f 38/73/104 43/75/111 20/54/112 19/51/105
s 8
f 38/73/113 39/33/70 44/35/69 43/75/114
f 40/32/71 41/74/115 46/76/116 45/34/72
s 5
f 41/74/110 42/53/90 47/56/92 46/76/117
s 3
f 43/75/111 48/77/118 21/57/119 20/54/112
s 9
f 43/75/120 44/35/74 49/37/73 48/77/121
f 45/34/75 46/76/122 51/78/123 50/36/76
s 5
f 46/76/117 47/56/92 52/59/94 51/78/124
s 3
f 48/77/118 53/79/125 22/60/126 21/57/119
s 10
f 48/77/127 49/37/78 54/39/77 53/79/128
f 50/36/79 51/78/129 56/80/130 55/38/80
s 5
f 51/78/124 52/59/94 57/62/96 56/80/131
s 11
f 23/63/81 24/65/132 53/79/133 54/39/82
s 3
f 53/79/125 24/65/45 16/25/48 22/60/126
s 5
f 27/64/58 28/68/57 56/80/131 57/62/96
s 11
f 28/68/134 29/40/84 55/38/83 56/80/135
s off
f 8/21/136 9/20/137 59/82/138 58/113/139
f 9/20/140 10/19/141 61/83/142 59/82/143
f 10/19/144 11/18/145 62/84/146 61/83/147
f 11/18/148 12/17/149 63/85/150 62/84/151
f 12/17/152 13/16/153 64/86/154 63/85/155
f 13/16/156 14/22/157 65/87/158 64/86/159
f 14/22/160 8/119/161 58/120/162 65/87/163
f 67/90/164 66/88/165 16/41/166 17/45/167
f 68/91/168 67/90/169 17/45/170 18/48/171
f 69/92/172 68/91/173 18/48/174 19/51/175
f 70/93/176 69/92/177 19/51/178 20/54/179
f 71/94/180 70/93/181 20/54/182 21/57/183
f 72/95/184 71/94/185 21/57/186 22/60/187
f 66/89/188 72/95/189 22/60/190 16/25/191
f 1/8/192 2/9/193 74/97/194 73/96/195
f 72/95/196 66/89/197 76/99/198 75/98/199
f 2/9/200 3/10/201 77/100/202 74/97/203
f 71/94/204 72/95/205 75/98/206 78/101/207
f 3/10/208 4/11/209 79/102/210 77/100/211
f 70/93/212 71/94/213 78/101/214 80/103/215
f 4/11/216 5/12/217 81/104/218 79/102/219
f 69/92/220 70/93/221 80/103/222 82/105/223
f 5/12/224 6/13/225 83/106/226 81/104/227
f 68/91/228 69/92/229 82/105/230 84/107/231
f 6/13/232 7/14/233 85/108/234 83/106/235
f 67/90/236 68/91/237 84/107/238 86/109/239
f 7/14/240 1/15/241 73/110/242 85/108/243
f 66/88/244 67/90/245 86/109/246 76/111/247
