# This file uses centimeters as units for non-parametric coordinates.

mtllib Straw.mtl
g default
v 6.092979 3.367874 2.141961
v 6.063398 3.367874 2.135209
v 6.039676 3.367874 2.154127
v 6.039676 3.367874 2.184468
v 6.063398 3.367874 2.203386
v 6.092979 3.367874 2.196635
v 6.106144 3.367874 2.169297
v 5.811656 4.737831 2.141961
v 5.793344 4.714599 2.135209
v 5.778660 4.695968 2.154127
v 5.778660 4.695968 2.184468
v 5.793344 4.714599 2.203386
v 5.811656 4.737831 2.196635
v 5.819805 4.748170 2.169297
v 6.071179 3.367874 2.169297
v 5.798161 4.720709 2.169297
v 6.085218 4.504701 2.141961
v 6.098032 4.507722 2.169297
v 6.085218 4.504701 2.196635
v 6.056427 4.497913 2.203386
v 6.033337 4.492470 2.184468
v 6.033337 4.492470 2.154127
v 6.056427 4.497913 2.135209
v 6.054284 4.546598 2.141961
v 6.062433 4.556938 2.169297
v 6.054284 4.546598 2.196635
v 6.035973 4.523366 2.203386
v 6.021288 4.504735 2.184468
v 6.021288 4.504735 2.154127
v 6.035973 4.523366 2.135209
v 6.092979 4.464801 2.141961
v 6.106144 4.464801 2.169297
v 6.092979 4.464801 2.196635
v 6.063398 4.464801 2.203386
v 6.039676 4.464801 2.184468
v 6.039676 4.464801 2.154127
v 6.063398 4.464801 2.135209
vt 0.597420 0.034089
vt 0.465231 0.003918
vt 0.359224 0.088456
vt 0.359224 0.224044
vt 0.465231 0.308582
vt 0.597420 0.278411
vt 0.656250 0.156250
vt 0.375000 0.312500
vt 0.410714 0.312500
vt 0.446429 0.312500
vt 0.482143 0.312500
vt 0.517857 0.312500
vt 0.553571 0.312500
vt 0.589286 0.312500
vt 0.625000 0.312500
vt 0.375000 0.687500
vt 0.410714 0.687500
vt 0.446429 0.687500
vt 0.482143 0.687500
vt 0.517857 0.687500
vt 0.553571 0.687500
vt 0.589286 0.687500
vt 0.625000 0.687500
vt 0.597420 0.721589
vt 0.465231 0.691418
vt 0.359224 0.775956
vt 0.359224 0.911544
vt 0.465231 0.996082
vt 0.597420 0.965911
vt 0.656250 0.843750
vt 0.500000 0.156250
vt 0.500000 0.843750
vt 0.625000 0.600476
vt 0.375000 0.600476
vt 0.589286 0.600476
vt 0.553571 0.600476
vt 0.517857 0.600476
vt 0.482143 0.600476
vt 0.446429 0.600476
vt 0.410714 0.600476
vt 0.625000 0.608512
vt 0.375000 0.608512
vt 0.589286 0.608512
vt 0.553571 0.608512
vt 0.517857 0.608512
vt 0.482143 0.608512
vt 0.446429 0.608512
vt 0.410714 0.608512
vt 0.625000 0.592964
vt 0.375000 0.592964
vt 0.589286 0.592964
vt 0.553571 0.592964
vt 0.517857 0.592964
vt 0.482143 0.592964
vt 0.446429 0.592964
vt 0.410714 0.592964
vn 0.222525 0.000000 -0.974927
vn 0.222525 0.000000 -0.974927
vn 0.222449 0.001625 -0.974943
vn 0.222465 0.001278 -0.974940
vn -0.623490 0.000000 -0.781831
vn -0.623490 0.000000 -0.781831
vn -0.623351 -0.004079 -0.781932
vn -0.623378 -0.003310 -0.781914
vn -1.000000 0.000000 0.000000
vn -1.000000 0.000000 0.000000
vn -0.999984 -0.005636 0.000000
vn -0.999984 -0.005636 0.000000
vn -0.623490 0.000000 0.781831
vn -0.623490 0.000000 0.781831
vn -0.623378 -0.003310 0.781914
vn -0.623351 -0.004079 0.781932
vn 0.222518 0.000000 0.974929
vn 0.222518 0.000000 0.974929
vn 0.222458 0.001278 0.974941
vn 0.222442 0.001625 0.974945
vn 0.900966 0.000000 0.433890
vn 0.900966 0.000000 0.433890
vn 0.900899 0.005970 0.433987
vn 0.900890 0.006600 0.433996
vn 0.900966 0.000000 -0.433890
vn 0.900966 0.000000 -0.433890
vn 0.900890 0.006600 -0.433997
vn 0.900899 0.005970 -0.433987
vn 0.000000 -1.000000 0.000002
vn 0.000000 -1.000000 -0.000006
vn 0.000000 -1.000000 0.000001
vn 0.000000 -1.000000 0.000000
vn 0.000000 -1.000000 0.000002
vn 0.000000 -1.000000 0.000002
vn 0.000000 -1.000000 0.000008
vn 0.000000 -1.000000 0.000000
vn -0.785382 0.619011 0.000000
vn -0.785387 0.619006 -0.000010
vn -0.785381 0.619013 -0.000001
vn -0.785381 0.619013 -0.000010
vn -0.785381 0.619013 0.000008
vn -0.785384 0.619009 0.000006
vn -0.785381 0.619013 -0.000002
vn -0.785370 0.619027 0.000000
vn 0.820306 0.377561 -0.429589
vn 0.812574 0.395088 -0.428519
vn 0.589024 0.682745 -0.432330
vn 0.585338 0.685768 -0.432552
vn 0.812575 0.395090 0.428517
vn 0.820306 0.377564 0.429586
vn 0.585338 0.685770 0.432550
vn 0.589025 0.682747 0.432327
vn 0.201587 0.101431 0.974205
vn 0.205612 0.089347 0.974546
vn 0.142602 0.171692 0.974775
vn 0.144158 0.170710 0.974719
vn -0.560284 -0.280846 0.779235
vn -0.573954 -0.247129 0.780707
vn -0.392942 -0.485675 0.780844
vn -0.394216 -0.484941 0.780658
vn -0.908332 -0.418249 0.000000
vn -0.908332 -0.418249 0.000000
vn -0.624238 -0.781234 0.000000
vn -0.624238 -0.781234 0.000000
vn -0.573953 -0.247131 -0.780707
vn -0.560282 -0.280848 -0.779236
vn -0.394216 -0.484941 -0.780658
vn -0.392942 -0.485675 -0.780844
vn 0.205626 0.089350 -0.974543
vn 0.201599 0.101434 -0.974202
vn 0.144165 0.170717 -0.974716
vn 0.142610 0.171700 -0.974773
vn 0.557712 0.707600 -0.433889
vn 0.557712 0.707600 -0.433889
vn 0.557712 0.707602 0.433887
vn 0.557712 0.707602 0.433887
vn 0.137738 0.174759 0.974930
vn 0.137738 0.174759 0.974930
vn -0.385949 -0.489676 0.781831
vn -0.385949 -0.489676 0.781831
vn -0.619014 -0.785380 0.000000
vn -0.619014 -0.785380 0.000000
vn -0.385949 -0.489676 -0.781831
vn -0.385949 -0.489676 -0.781831
vn 0.137746 0.174766 -0.974927
vn 0.137746 0.174766 -0.974927
s 1
g Straw
usemtl initialShadingGroup
f 1/8/1 2/9/2 37/56/3 31/50/4
s 2
f 2/9/5 3/10/6 36/55/7 37/56/8
s 3
f 3/10/9 4/11/10 35/54/11 36/55/12
s 4
f 4/11/13 5/12/14 34/53/15 35/54/16
s 5
f 5/12/17 6/13/18 33/52/19 34/53/20
s 6
f 6/13/21 7/14/22 32/51/23 33/52/24
s 7
f 7/14/25 1/15/26 31/49/27 32/51/28
s 8
f 2/2/29 1/1/30 15/31/31
f 3/3/32 2/2/29 15/31/31
f 4/4/33 3/3/32 15/31/31
f 5/5/34 4/4/33 15/31/31
f 6/6/35 5/5/34 15/31/31
f 7/7/36 6/6/35 15/31/31
f 1/1/30 7/7/36 15/31/31
s 9
f 8/29/37 9/28/38 16/32/39
f 9/28/38 10/27/40 16/32/39
f 10/27/40 11/26/41 16/32/39
f 11/26/41 12/25/42 16/32/39
f 12/25/42 13/24/43 16/32/39
f 13/24/43 14/30/44 16/32/39
f 14/30/44 8/29/37 16/32/39
s 7
f 18/35/45 17/33/46 24/41/47 25/43/48
s 6
f 19/36/49 18/35/50 25/43/51 26/44/52
s 5
f 20/37/53 19/36/54 26/44/55 27/45/56
s 4
f 21/38/57 20/37/58 27/45/59 28/46/60
s 3
f 22/39/61 21/38/62 28/46/63 29/47/64
s 2
f 23/40/65 22/39/66 29/47/67 30/48/68
s 1
f 17/34/69 23/40/70 30/48/71 24/42/72
s 7
f 25/43/48 24/41/47 8/23/73 14/22/74
s 6
f 26/44/52 25/43/51 14/22/75 13/21/76
s 5
f 27/45/56 26/44/55 13/21/77 12/20/78
s 4
f 28/46/60 27/45/59 12/20/79 11/19/80
s 3
f 29/47/64 28/46/63 11/19/81 10/18/82
s 2
f 30/48/68 29/47/67 10/18/83 9/17/84
s 1
f 24/42/72 30/48/71 9/17/85 8/16/86
s 7
f 32/51/28 31/49/27 17/33/46 18/35/45
s 6
f 33/52/24 32/51/23 18/35/50 19/36/49
s 5
f 34/53/20 33/52/19 19/36/54 20/37/53
s 4
f 35/54/16 34/53/15 20/37/58 21/38/57
s 3
f 36/55/12 35/54/11 21/38/62 22/39/61
s 2
f 37/56/8 36/55/7 22/39/66 23/40/65
s 1
f 31/50/4 37/56/3 23/40/70 17/34/69
