# This file uses centimeters as units for non-parametric coordinates.

mtllib Window01.mtl
g default
v 2.758159 10.631386 -17.525518
v 10.881166 10.631386 -17.525518
v 2.758159 4.996337 -17.525518
v 10.881166 4.996337 -17.525518
v 3.558062 10.076481 -17.525518
v 10.081263 10.076481 -17.525518
v 10.081263 5.551241 -17.525518
v 3.558062 5.551241 -17.525518
v 2.758159 4.996337 -16.625509
v 2.862436 5.100786 -16.525518
v 10.881166 4.996337 -16.625509
v 10.776889 5.100786 -16.525518
v 2.758159 10.631386 -16.625509
v 2.862436 10.526936 -16.525518
v 10.881166 10.631386 -16.625509
v 10.776889 10.526936 -16.525518
v 3.453786 5.446792 -16.525518
v 3.558062 5.551241 -16.625509
v 10.185539 5.446792 -16.525518
v 10.081263 5.551241 -16.625509
v 10.185539 10.180932 -16.525518
v 10.081263 10.076481 -16.625509
v 3.453786 10.180932 -16.525518
v 3.558062 10.076481 -16.625509
v 3.558062 5.551241 -16.750643
v 10.081263 10.076481 -16.750643
v 10.081263 5.551241 -16.750643
v 10.081263 5.551241 -16.750643
v 10.081263 5.551241 -16.750643
v 3.558062 10.076481 -16.750643
v 3.558062 10.076481 -16.750643
v 3.558062 10.076481 -16.750643
v 3.558062 5.551241 -16.750643
v 3.558062 5.551241 -16.750643
v 3.558062 5.551241 -16.750643
v 3.558062 5.551241 -16.750643
vt 0.523466 0.445128
vt 0.014181 0.850499
vt 0.063533 0.849753
vt 0.072852 0.823787
vt 0.064948 0.442483
vt 0.074135 0.467822
vt 0.474114 0.444125
vt 0.474946 0.853143
vt 0.465759 0.827805
vt 0.384618 0.206415
vt 0.437785 0.161550
vt 0.064950 0.334380
vt 0.473809 0.333582
vt 0.063838 0.974875
vt 0.474524 0.974875
vt 0.093745 0.789555
vt 0.464795 0.470092
vt 0.094576 0.490045
vt 0.443902 0.489806
vt 0.442747 0.791065
vt 0.435798 0.521500
vt 0.439939 0.154722
vt 0.435057 0.759290
vt 0.439766 0.218901
vt 0.101849 0.757861
vt 0.383148 0.214277
vt 0.102265 0.521819
vt 0.381569 0.153600
vt 0.102270 0.753085
vt 0.957986 0.950444
vt 0.453124 0.154801
vt 0.958402 0.691579
vt 0.121270 0.521518
vt 0.385895 0.226248
vt 0.584829 0.949846
vt 0.435635 0.752250
vt 0.386600 0.141142
vt 0.368622 0.153918
vt 0.585244 0.690980
vt 0.109525 0.756959
vt 0.435578 0.213686
vt 0.014282 0.443633
vt 0.523331 0.851879
vt 0.384935 0.159834
vn 0.000000 0.000000 -1.000000
vn -0.000000 0.000000 -1.000000
vn -0.000000 0.000000 -1.000000
vn 0.000000 0.000000 -1.000000
vn -0.000000 0.000000 -1.000000
vn -0.000000 0.000000 -1.000000
vn 0.000000 0.000000 -1.000000
vn 0.000000 0.000000 -1.000000
vn -0.692118 0.000000 0.721784
vn -0.692118 0.000000 0.721784
vn -0.692118 0.000000 0.721784
vn -0.692118 0.000000 0.721784
vn 0.000000 -0.691520 0.722357
vn 0.000000 -0.691520 0.722357
vn 0.000000 -0.691520 0.722358
vn 0.000000 -0.691520 0.722357
vn 0.692115 0.000000 0.721787
vn 0.692115 0.000000 0.721787
vn 0.692115 0.000000 0.721787
vn 0.692115 0.000000 0.721787
vn 0.000000 0.691520 0.722357
vn 0.000000 0.691520 0.722357
vn 0.000000 0.691520 0.722357
vn 0.000000 0.691520 0.722357
vn 0.692121 0.000000 0.721782
vn 0.692121 0.000000 0.721782
vn 0.692121 0.000000 0.721782
vn 0.692121 0.000000 0.721782
vn 0.000000 0.691522 0.722355
vn 0.000000 0.691522 0.722355
vn 0.000000 0.691522 0.722355
vn 0.000000 0.691522 0.722355
vn -0.692120 0.000000 0.721782
vn -0.692120 0.000000 0.721782
vn -0.692120 0.000000 0.721782
vn -0.692120 0.000000 0.721782
vn 0.000000 -0.691516 0.722361
vn 0.000000 -0.691516 0.722361
vn 0.000000 -0.691516 0.722361
vn 0.000000 -0.691516 0.722361
vn 0.000000 1.000000 0.000000
vn 0.000000 1.000000 0.000000
vn 0.000000 1.000000 0.000000
vn 0.000000 1.000000 0.000000
vn 0.000000 -1.000000 0.000000
vn 0.000000 -1.000000 0.000000
vn 0.000000 -1.000000 0.000000
vn 0.000000 -1.000000 0.000000
vn 1.000000 0.000000 0.000000
vn 1.000000 0.000000 0.000000
vn 1.000000 0.000000 0.000000
vn 1.000000 0.000000 0.000000
vn -1.000000 0.000000 0.000000
vn -1.000000 0.000000 0.000000
vn -1.000000 0.000000 0.000000
vn -1.000000 0.000000 0.000000
vn 0.000000 0.000000 1.000000
vn -0.000000 0.000000 1.000000
vn -0.000000 0.000000 1.000000
vn 0.000000 0.000000 1.000000
vn -0.000000 0.000000 1.000000
vn -0.000000 0.000000 1.000000
vn 0.000000 0.000000 1.000000
vn 0.000000 0.000000 1.000000
vn -1.000000 0.000000 0.000000
vn -1.000000 0.000000 0.000000
vn -1.000000 0.000000 0.000000
vn -1.000000 0.000000 0.000000
vn -1.000000 0.000000 0.000000
vn -1.000000 0.000000 0.000000
vn 0.000000 -1.000000 0.000000
vn 0.000000 -1.000000 0.000000
vn 0.000000 -1.000000 0.000000
vn 0.000000 -1.000000 0.000000
vn 0.000000 -1.000000 0.000000
vn 0.000000 -1.000000 0.000000
vn 1.000000 0.000000 0.000000
vn 1.000000 0.000000 0.000000
vn 1.000000 0.000000 0.000000
vn 1.000000 0.000000 0.000000
vn 1.000000 0.000000 0.000000
vn 1.000000 0.000000 0.000000
vn 0.000000 1.000000 0.000000
vn 0.000000 1.000000 0.000000
vn 0.000000 1.000000 0.000000
vn 0.000000 1.000000 0.000000
vn 0.000000 1.000000 0.000000
vn 0.000000 1.000000 0.000000
vn 0.000000 0.000000 1.000000
vn 0.000000 0.000000 1.000000
vn 0.000000 0.000000 1.000000
vn 0.000000 0.000000 1.000000
s 1
g Windows1
usemtl initialShadingGroup
f 1/10/1 2/41/2 6/24/3 5/26/4
f 2/41/2 4/11/5 7/22/6 6/24/3
f 4/11/5 3/44/7 8/28/8 7/22/6
f 3/44/7 1/10/1 5/26/4 8/28/8
s off
f 9/3/9 10/4/10 14/9/11 13/8/12
f 10/4/13 9/3/14 11/5/15 12/6/16
f 12/6/17 11/5/18 15/7/19 16/17/20
f 13/8/21 14/9/22 16/17/23 15/7/24
f 17/16/25 18/25/26 24/23/27 23/20/28
f 18/25/29 17/16/30 19/18/31 20/27/32
f 20/27/33 19/18/34 21/19/35 22/21/36
f 22/21/37 21/19/38 23/20/39 24/23/40
f 13/8/41 15/7/42 2/1/43 1/43/44
f 3/2/45 4/42/46 11/5/47 9/3/48
f 11/5/49 4/12/50 2/13/51 15/7/52
f 3/14/53 9/3/54 13/8/55 1/15/56
s 2
f 10/4/57 12/6/58 19/18/59 17/16/60
f 12/6/58 16/17/61 21/19/62 19/18/59
f 16/17/61 14/9/63 23/20/64 21/19/62
f 14/9/63 10/4/57 17/16/60 23/20/64
s off
f 20/27/65 22/21/66 29/33/67
f 6/24/68 7/22/69 28/31/70
f 22/21/71 24/23/72 32/36/73
f 5/26/74 6/24/75 31/34/76
f 24/23/77 18/25/78 36/40/79
f 8/28/80 5/26/81 35/38/82
f 18/25/83 20/27/84 25/29/85
f 7/22/86 8/28/87 33/37/88
f 27/32/89 26/30/90 30/35/91 34/39/92
