# This file uses centimeters as units for non-parametric coordinates.

mtllib Counter.mtl
g default
v -10.902838 -0.050179 0.500000
v 10.514133 -0.050179 0.500000
v -10.902838 -0.050179 -0.500000
v 10.514133 -0.050179 -0.500000
v -10.902838 5.658653 0.500000
v -10.902838 5.658653 -0.500000
v 10.514134 5.658653 -0.500000
v 10.514134 5.658653 0.500000
v -10.902838 4.398338 0.500000
v -10.902838 4.398338 -0.500000
v 10.514134 4.398338 -0.500000
v 10.514134 4.398338 0.500000
v -10.902838 3.999962 0.500000
v -10.902838 3.999962 -0.500000
v 10.514134 3.999962 -0.500000
v 10.514134 3.999962 0.500000
v -10.902838 2.964936 0.500000
v -10.902838 2.964936 -0.500000
v 10.514134 2.964936 -0.500000
v 10.514134 2.964936 0.500000
v -10.902838 2.566557 0.500000
v -10.902838 2.566557 -0.500000
v 10.514134 2.566557 -0.500000
v 10.514134 2.566557 0.500000
v -10.902838 1.554458 0.500000
v -10.902838 1.554458 -0.500000
v 10.514134 1.554458 -0.500000
v 10.514134 1.554458 0.500000
v -10.902838 1.209197 0.500000
v -10.902838 1.209197 -0.500000
v 10.514134 1.209197 -0.500000
v 10.514134 1.209197 0.500000
v 10.514133 3.999962 1.818910
v -10.902838 3.999962 1.818910
v 10.514133 4.398338 1.818910
v -10.902838 4.398338 1.818910
v 10.514134 2.566557 1.818910
v -10.902838 2.566557 1.818910
v 10.514134 2.964936 1.818910
v -10.902838 2.964936 1.818910
v 10.514134 1.209197 1.818910
v -10.902838 1.209197 1.818910
v 10.514134 1.554458 1.818910
v -10.902838 1.554458 1.818910
v 10.514133 4.022641 1.854663
v -10.902838 4.022641 1.854663
v -10.902838 4.375659 1.854663
v 10.514134 2.589236 1.854663
v -10.902838 2.589236 1.854663
v 10.514134 2.942257 1.854663
v -10.902838 2.942257 1.854663
v 10.514134 1.228852 1.854663
v -10.902838 1.228852 1.854663
v 10.514134 1.534803 1.854663
v -10.902838 1.534803 1.854663
v 5.069315 3.999962 1.818910
v 5.069315 4.022641 1.854663
v 5.069314 4.375659 1.854663
v 5.069315 4.398338 1.818910
v 10.717621 5.700945 1.385263
v 10.675329 5.658653 1.342972
v -11.064032 5.658653 1.342972
v -11.106323 5.700945 1.385263
v 10.675329 6.081611 1.342972
v 10.717621 6.039319 1.385263
v -11.106323 6.039319 1.385263
v -11.064032 6.081611 1.342972
v 10.717621 5.700945 -1.080868
v 10.675329 5.658653 -1.038577
v 10.675329 6.081611 -1.038577
v 10.717621 6.039319 -1.080868
v -11.106323 5.700945 -1.080868
v -11.064032 5.658653 -1.038577
v -11.064032 6.081611 -1.038577
v -11.106323 6.039319 -1.080868
v 7.472613 3.999962 1.818910
v 7.472613 4.022641 1.854663
v 7.472613 4.398338 1.818910
v 7.472613 4.378808 1.824571
v 10.514133 4.376334 1.839363
v 5.171976 2.964936 1.818910
v 5.171977 2.942257 1.854663
v 5.171977 2.589236 1.854663
v 5.171977 2.566557 1.818910
v 7.489172 2.964936 1.818910
v 7.489172 2.942257 1.854663
v 7.489172 2.589236 1.854663
v 7.489172 2.566557 1.818910
v 7.489172 2.964936 2.911771
v 7.489172 2.942257 2.947523
v 5.171976 2.964936 2.911771
v 5.171977 2.942257 2.947523
v 7.489172 2.589236 2.947523
v 5.171977 2.589236 2.947523
v 7.489172 2.566557 2.911771
v 5.171977 2.566557 2.911771
vt 0.380986 0.058848
vt 0.984081 0.039134
vt 0.362438 0.058846
vt 0.065795 0.058822
vt 0.362440 0.040298
vt 0.065796 0.040274
vt 0.439422 0.356618
vt 0.362434 0.115862
vt 0.065790 0.115837
vt 0.984064 0.356373
vt 0.439405 0.278353
vt 0.362434 0.108472
vt 0.065791 0.108448
vt 0.984048 0.278368
vt 0.439407 0.252031
vt 0.362435 0.098620
vt 0.065791 0.098596
vt 0.984048 0.252047
vt 0.439412 0.173815
vt 0.362435 0.091231
vt 0.065792 0.091207
vt 0.984080 0.173837
vt 0.439413 0.148077
vt 0.362436 0.081132
vt 0.065793 0.081108
vt 0.984080 0.148099
vt 0.439417 0.071139
vt 0.362437 0.074728
vt 0.065793 0.074704
vt 0.984081 0.071161
vt 0.439409 0.311916
vt 0.028384 0.108445
vt 0.984045 0.322799
vt 0.439411 0.323055
vt 0.439410 0.207357
vt 0.984068 0.207384
vt 0.984060 0.218516
vt 0.439409 0.218488
vt 0.439415 0.104680
vt 0.984080 0.104702
vt 0.984080 0.114557
vt 0.439415 0.114536
vt 0.439409 0.312994
vt 0.027721 0.108866
vt 0.439411 0.321977
vt 0.439410 0.208433
vt 0.984067 0.208461
vt 0.984061 0.217439
vt 0.439409 0.217412
vt 0.439415 0.105718
vt 0.984080 0.105739
vt 0.984080 0.113520
vt 0.439415 0.113498
vt 0.845542 0.311852
vt 0.845542 0.312926
vt 0.392466 0.208791
vt 0.041776 0.209356
vt 0.392480 0.275529
vt 0.392470 0.215897
vt 0.046662 0.156853
vt 0.401691 0.157295
vt 0.048824 0.208846
vt 0.048785 0.268469
vt 0.388666 0.189817
vt 0.049876 0.207616
vt 0.391585 0.217154
vt 0.389420 0.168870
vt 0.391414 0.207560
vt 0.391595 0.267167
vt 0.051814 0.168914
vt 0.393259 0.157585
vt 0.049672 0.267213
vt 0.052598 0.189936
vt 0.047965 0.157650
vt 0.049702 0.217206
vt 0.906642 0.311998
vt 0.906642 0.313084
vt 0.906636 0.322250
vt 0.984045 0.322034
vt 0.362432 0.139238
vt 0.065788 0.139214
vt 0.047240 0.139213
vt 0.439438 0.388669
vt 0.048783 0.275575
vt 0.039536 0.157379
vt 0.049669 0.276830
vt 0.394565 0.156780
vt 0.391594 0.276785
vt 0.392481 0.268423
vt 0.040486 0.208556
vt 0.038321 0.158362
vt 0.402907 0.158276
vt 0.400804 0.208486
vt 0.399515 0.209288
vt 0.048817 0.215950
vt 0.400503 0.115444
vt 0.399840 0.115864
vt 0.380982 0.115863
vt 0.380982 0.108474
vt 0.380980 0.139240
vt 0.439418 0.039112
vt 0.400505 0.091654
vt 0.400505 0.098202
vt 0.399842 0.098623
vt 0.399842 0.091234
vt 0.380983 0.098621
vt 0.399843 0.081135
vt 0.399841 0.108475
vt 0.400504 0.108896
vt 0.400506 0.080771
vt 0.380985 0.074730
vt 0.399844 0.074731
vt 0.400507 0.075096
vt 0.047244 0.081106
vt 0.047245 0.074702
vt 0.047243 0.098594
vt 0.047244 0.091205
vt 0.047242 0.115836
vt 0.047242 0.108447
vt 0.984081 0.388424
vt 0.047246 0.058820
vt 0.027723 0.075065
vt 0.027723 0.080740
vt 0.028386 0.081105
vt 0.028387 0.074701
vt 0.027722 0.091624
vt 0.028385 0.091204
vt 0.028385 0.098593
vt 0.027721 0.098172
vt 0.028004 0.115426
vt 0.984033 0.313024
vt 0.028383 0.115834
vt 0.984032 0.311947
vt 0.380985 0.081134
vt 0.380984 0.091232
vt 0.845537 0.322948
vt 0.845537 0.321875
vt 0.906636 0.322771
vt 0.023122 0.332120
vt 0.023913 0.331580
vt 0.023543 0.322873
vt 0.048576 0.296267
vt 0.103827 0.358309
vt 0.128854 0.331695
vt 0.128481 0.322989
vt 0.129272 0.322449
vt 0.103234 0.331478
vt 0.103789 0.332222
vt 0.048414 0.332181
vt 0.048932 0.331439
vt 0.103464 0.323140
vt 0.049163 0.323101
vt 0.103982 0.322398
vt 0.048609 0.322356
vt 0.907147 0.208447
vt 0.907147 0.207370
vt 0.907148 0.217422
vt 0.907114 0.218499
vt 0.848206 0.208449
vt 0.848206 0.207372
vt 0.848192 0.217426
vt 0.848192 0.218503
vt 0.103944 0.296273
vt 0.129663 0.332237
vt 0.022734 0.322331
vt 0.048457 0.358307
vn 0.000000 0.000000 1.000000
vn 0.000000 0.000000 1.000000
vn 0.000000 0.000000 1.000000
vn 0.000000 0.000000 1.000000
vn 0.000000 0.000000 -1.000000
vn 0.000000 0.000000 -1.000000
vn 0.000000 0.000000 -1.000000
vn 0.000000 0.000000 -1.000000
vn 0.000000 -1.000000 0.000000
vn 0.000000 -1.000000 0.000000
vn 0.000000 -1.000000 0.000000
vn 0.000000 -1.000000 0.000000
vn 1.000000 -0.000001 0.000000
vn 1.000000 -0.000001 0.000000
vn 1.000000 -0.000001 0.000000
vn 1.000000 -0.000000 0.000000
vn -1.000000 0.000000 0.000000
vn -1.000000 0.000000 0.000000
vn -1.000000 0.000000 0.000000
vn -1.000000 0.000000 0.000000
vn -1.000000 0.000000 0.000000
vn -1.000000 0.000000 0.000000
vn -1.000000 0.000000 0.000000
vn -1.000000 0.000000 0.000000
vn 0.000000 0.000000 -1.000000
vn 0.000000 0.000000 -1.000000
vn 0.000000 0.000000 -1.000000
vn 0.000000 0.000000 -1.000000
vn 1.000000 -0.000000 0.000000
vn 1.000000 -0.000000 0.000000
vn 1.000000 -0.000000 0.000000
vn 1.000000 -0.000000 0.000000
vn 0.000000 0.000000 1.000000
vn 0.000000 0.000000 1.000000
vn 0.000000 0.000000 1.000000
vn 0.000000 0.000000 1.000000
vn -1.000000 0.000000 0.000000
vn -1.000000 0.000000 0.000000
vn 0.000000 0.000000 -1.000000
vn 0.000000 0.000000 -1.000000
vn 1.000000 0.000000 0.000000
vn 1.000000 0.000000 0.000000
vn 0.000000 0.000000 1.000000
vn 0.000000 0.000000 1.000000
vn 0.000000 0.000000 1.000000
vn 0.000000 0.000000 1.000000
vn -1.000000 0.000000 0.000000
vn -1.000000 0.000000 0.000000
vn 0.000000 0.000000 -1.000000
vn 0.000000 0.000000 -1.000000
vn 1.000000 0.000000 0.000000
vn 1.000000 0.000000 0.000000
vn 0.000000 0.000000 1.000000
vn 0.000000 0.000000 1.000000
vn 0.000000 0.000000 1.000000
vn 0.000000 0.000000 1.000000
vn -1.000000 0.000000 0.000000
vn -1.000000 0.000000 0.000000
vn 0.000000 0.000000 -1.000000
vn 0.000000 0.000000 -1.000000
vn 1.000000 0.000000 0.000000
vn 1.000000 0.000000 0.000000
vn 0.000000 0.000000 1.000000
vn 0.000000 0.000000 1.000000
vn 0.000000 0.000000 1.000000
vn 0.000000 0.000000 1.000000
vn -1.000000 0.000000 0.000000
vn -1.000000 0.000000 0.000000
vn 0.000000 0.000000 -1.000000
vn 0.000000 0.000000 -1.000000
vn 1.000000 0.000000 0.000000
vn 1.000000 0.000000 0.000000
vn 0.000000 0.000000 1.000000
vn 0.000000 0.000000 1.000000
vn 0.000000 0.000000 1.000000
vn 0.000000 0.000000 1.000000
vn 0.000000 0.000000 1.000000
vn 0.000000 0.000000 1.000000
vn 0.000000 0.000000 1.000000
vn 0.000000 0.000000 1.000000
vn 0.000000 -1.000000 0.000000
vn 0.000000 -1.000000 0.000000
vn 0.000000 -1.000000 0.000000
vn 0.000000 -1.000000 -0.000000
vn 1.000000 0.000000 0.000001
vn 1.000000 0.000000 0.000001
vn 0.000000 1.000000 0.000000
vn 0.000000 1.000000 0.000000
vn 0.000000 1.000000 0.000000
vn 0.000000 1.000000 0.000000
vn -1.000000 0.000000 0.000000
vn -1.000000 0.000000 0.000000
vn 0.000000 -1.000000 0.000000
vn 0.000000 -1.000000 0.000000
vn 0.000000 -1.000000 -0.000000
vn 0.000000 -1.000000 -0.000000
vn 1.000000 0.000000 0.000000
vn 1.000000 0.000000 0.000000
vn -0.000000 1.000000 0.000000
vn 0.000000 1.000000 0.000000
vn -0.000000 1.000000 0.000000
vn -0.000000 1.000000 0.000000
vn -1.000000 0.000000 0.000000
vn -1.000000 0.000000 0.000000
vn 0.000000 -0.999895 0.014508
vn 0.000000 -0.999895 0.014508
vn 0.000000 -1.000000 0.000000
vn 0.000000 -1.000000 0.000000
vn 1.000000 0.000000 0.000000
vn 1.000000 0.000000 0.000000
vn 0.000000 1.000000 0.000000
vn 0.000000 1.000000 0.000000
vn 0.000000 0.999895 0.014508
vn 0.000000 0.999895 0.014508
vn -1.000000 0.000000 0.000000
vn -1.000000 0.000000 0.000000
vn 0.000000 -0.844435 0.535659
vn 0.000000 -0.844435 0.535659
vn 0.000000 -0.844436 0.535657
vn 0.000000 -0.844436 0.535657
vn 0.000000 0.844437 0.535655
vn 0.000000 0.844437 0.535655
vn 0.000000 0.844437 0.535655
vn 0.000000 0.844437 0.535655
vn -1.000000 0.000000 0.000000
vn -1.000000 0.000000 0.000000
vn 0.000000 -0.844435 0.535657
vn 0.000000 -0.844435 0.535657
vn 0.000000 -0.844435 0.535657
vn 0.000000 -0.844435 0.535657
vn 1.000000 0.000000 0.000000
vn 1.000000 0.000000 0.000000
vn 0.000000 0.844434 0.535659
vn 0.000000 0.844434 0.535659
vn 0.000000 0.844435 0.535659
vn 0.000000 0.844434 0.535659
vn -1.000000 0.000000 0.000000
vn -1.000000 0.000000 0.000000
vn 0.000000 -0.876304 0.481759
vn 0.000000 -0.876304 0.481759
vn 1.000000 0.000000 0.000000
vn 1.000000 0.000000 0.000000
vn 0.000000 0.876304 0.481758
vn 0.000000 0.876304 0.481758
vn -1.000000 0.000000 0.000000
vn -1.000000 0.000000 0.000000
vn 0.000000 1.000000 0.000000
vn 0.000000 1.000000 0.000000
vn 0.000000 -0.844434 0.535659
vn 0.000000 -0.844434 0.535659
vn 0.000000 -1.000000 -0.000000
vn 0.000000 -1.000000 -0.000000
vn 0.707112 -0.707101 0.000000
vn 0.707112 -0.707101 0.000000
vn 0.707112 -0.707101 0.000000
vn 0.707112 -0.707101 0.000000
vn 0.000000 -0.707103 0.707110
vn 0.000000 -0.707103 0.707110
vn 0.000000 -0.707103 0.707110
vn 0.000000 -0.707103 0.707110
vn -0.707112 -0.707101 0.000000
vn -0.707112 -0.707101 0.000000
vn -0.707112 -0.707101 0.000000
vn -0.707112 -0.707101 0.000000
vn 0.707112 0.707101 0.000000
vn 0.707112 0.707101 0.000000
vn 0.707112 0.707101 0.000000
vn 0.707112 0.707101 0.000000
vn 0.000000 0.707109 0.707104
vn 0.000000 0.707109 0.707104
vn 0.000000 0.707109 0.707104
vn 0.000000 0.707109 0.707104
vn -0.707112 0.707101 0.000000
vn -0.707112 0.707101 0.000000
vn -0.707112 0.707101 0.000000
vn -0.707112 0.707101 0.000000
vn 0.000000 -0.707103 -0.707110
vn 0.000000 -0.707103 -0.707110
vn 0.000000 -0.707103 -0.707110
vn 0.000000 -0.707103 -0.707110
vn 0.000000 0.707109 -0.707104
vn 0.000000 0.707109 -0.707104
vn 0.000000 0.707109 -0.707104
vn 0.000000 0.707109 -0.707104
vn 0.000000 0.000000 1.000000
vn 0.000000 0.000000 1.000000
vn 0.000000 0.000000 1.000000
vn 0.000000 0.000000 1.000000
vn 1.000000 0.000000 0.000000
vn 1.000000 0.000000 0.000000
vn 1.000000 0.000000 0.000000
vn 1.000000 0.000000 0.000000
vn 0.000000 0.000000 -1.000000
vn 0.000000 0.000000 -1.000000
vn 0.000000 0.000000 -1.000000
vn 0.000000 0.000000 -1.000000
vn -1.000000 0.000000 0.000000
vn -1.000000 0.000000 0.000000
vn -1.000000 0.000000 0.000000
vn -1.000000 0.000000 0.000000
vn 0.000000 -1.000000 -0.000000
vn 0.000000 -1.000000 -0.000000
vn 0.000000 -1.000000 -0.000000
vn 0.000000 -1.000000 -0.000000
vn 0.000000 -1.000000 0.000000
vn 0.000000 -1.000000 0.000000
vn 0.000000 -1.000000 0.000000
vn 0.000000 -1.000000 0.000000
vn 0.000000 1.000000 0.000000
vn 0.000000 1.000000 0.000000
vn 0.000000 1.000000 0.000000
vn 0.000000 1.000000 0.000000
vn 0.000000 -0.844435 0.535658
vn 0.000000 -0.844435 0.535658
vn -0.001842 0.532269 0.846573
vn -0.001842 0.532269 0.846573
vn -0.002382 0.094796 0.995494
vn -0.002382 0.094643 0.995509
vn -0.002401 0.063813 0.997959
vn -0.002401 0.063813 0.997959
vn 1.000000 0.000000 0.000000
vn 1.000000 0.000000 0.000000
vn 1.000000 0.000000 0.000000
vn 1.000000 0.000000 0.000000
vn 0.000000 1.000000 0.000000
vn 0.000000 1.000000 0.000000
vn 0.000000 0.844434 0.535659
vn 0.000000 0.844434 0.535659
vn 0.000000 0.844434 0.535659
vn 0.000000 0.844434 0.535659
vn -0.000000 0.000000 1.000000
vn -0.000000 0.000000 1.000000
vn -0.000000 0.000000 1.000000
vn -0.000000 0.000000 1.000000
vn 0.000000 -0.844435 0.535658
vn 0.000000 -0.844435 0.535658
vn 0.000000 -0.844435 0.535658
vn 0.000000 -0.844435 0.535658
vn 0.000000 -1.000000 -0.000000
vn 0.000000 -1.000000 -0.000000
vn -0.000000 0.844432 0.535662
vn -0.000000 0.844432 0.535662
vn -0.000000 0.844432 0.535662
vn -0.000000 0.844432 0.535662
vn -0.000000 0.000000 1.000000
vn -0.000000 0.000000 1.000000
vn -0.000000 0.000000 1.000000
vn -0.000000 0.000000 1.000000
vn 0.000000 -0.844433 0.535661
vn 0.000000 -0.844433 0.535661
vn 0.000000 -0.844433 0.535661
vn 0.000000 -0.844433 0.535661
vn 1.000000 0.000038 0.000000
vn 1.000000 0.000038 0.000000
vn 1.000000 0.000038 0.000000
vn 1.000000 0.000038 0.000000
vn -0.000000 1.000000 0.000000
vn -0.000000 1.000000 0.000000
vn -0.000000 1.000000 0.000000
vn -0.000000 1.000000 0.000000
vn -1.000000 -0.000019 0.000000
vn -1.000000 -0.000019 0.000000
vn -1.000000 -0.000019 0.000000
vn -1.000000 -0.000019 0.000000
vn 1.000000 0.000000 0.000000
vn 1.000000 0.000000 0.000000
vn 1.000000 0.000000 0.000000
vn 1.000000 0.000000 0.000000
vn -1.000000 -0.000001 0.000000
vn -1.000000 -0.000001 0.000000
vn -1.000000 -0.000001 0.000000
vn -1.000000 -0.000001 0.000000
vn 1.000000 0.000000 0.000000
vn 1.000000 0.000000 0.000000
vn 1.000000 0.000000 0.000000
vn 1.000000 0.000000 0.000000
vn -1.000000 0.000019 0.000000
vn -1.000000 0.000019 0.000000
vn -1.000000 0.000019 0.000000
vn -1.000000 0.000019 0.000000
vn 0.000000 -1.000000 0.000000
vn 0.000000 -1.000000 0.000000
vn 0.000000 -1.000000 0.000000
vn 0.000000 -1.000000 0.000000
vn 0.004010 0.700338 0.713801
vn 0.004010 0.700338 0.713801
vn 0.004010 0.700338 0.713801
vn 0.004010 0.700338 0.713801
vn 0.006227 0.042393 0.999082
vn 0.006227 0.042393 0.999082
vn 0.006227 0.042393 0.999082
vn 0.006227 0.042393 0.999082
s off
g Mostrador1
usemtl initialShadingGroup
f 32/30/1 29/27/2 1/101/3 2/2/4
s 1
f 3/3/5 30/28/6 31/29/7 4/4/8
s off
f 1/5/9 3/3/10 4/4/11 2/6/12
s 2
f 2/121/13 4/4/14 31/29/15 32/115/16
s 3
f 3/3/17 1/1/18 29/111/19 30/28/20
f 10/8/21 9/98/22 5/100/23 6/80/24
s 1
f 10/8/25 6/80/26 7/81/27 11/9/28
s 2
f 12/118/29 11/9/30 7/81/31 8/82/32
s off
f 8/120/33 5/83/34 9/7/35 12/10/36
s 3
f 14/12/37 13/99/38 9/98/22 10/8/21
s 1
f 14/12/39 10/8/25 11/9/28 15/13/40
s 2
f 16/119/41 15/13/42 11/9/30 12/118/29
s off
f 46/43/43 57/55/44 58/137/45 47/45/46
s 3
f 18/16/47 17/106/48 13/99/38 14/12/37
s 1
f 18/16/49 14/12/39 15/13/40 19/17/50
s 2
f 20/116/51 19/17/52 15/13/42 16/119/41
s off
f 20/18/53 16/14/54 13/11/55 17/15/56
s 3
f 22/20/57 21/135/58 17/106/48 18/16/47
s 1
f 22/20/59 18/16/49 19/17/50 23/21/60
s 2
f 24/117/61 23/21/62 19/17/52 20/116/51
s off
f 50/48/63 86/157/64 87/155/65 48/47/66
s 3
f 26/24/67 25/134/68 21/135/58 22/20/57
s 1
f 26/24/69 22/20/59 23/21/60 27/25/70
s 2
f 28/114/71 27/25/72 23/21/62 24/117/61
s off
f 24/22/73 21/19/74 25/23/75 28/26/76
s 3
f 30/28/20 29/111/19 25/134/68 26/24/67
s 1
f 30/28/6 26/24/69 27/25/70 31/29/7
s 2
f 32/115/16 31/29/15 27/25/72 28/114/71
s off
f 54/52/77 55/53/78 53/50/79 52/51/80
s 7
f 16/14/81 33/133/82 76/76/83 56/54/84
s 2
f 16/119/41 12/118/29 35/132/85 33/32/86
s 8
f 12/10/87 9/7/88 36/34/89 59/136/90
s 3
f 9/98/22 13/99/38 34/108/91 36/97/92
s 9
f 37/36/93 88/156/94 84/160/95 24/22/96
s 2
f 24/117/61 20/116/51 39/128/97 37/127/98
s 10
f 20/18/99 81/162/100 85/158/101 39/37/102
s 3
f 17/106/48 21/135/58 38/105/103 40/104/104
s 11
f 41/40/105 42/39/106 29/27/107 32/30/108
s 2
f 32/115/16 28/114/71 43/124/109 41/125/110
s 12
f 28/26/111 25/23/112 44/42/113 43/41/114
s 3
f 25/134/68 29/111/19 42/112/115 44/107/116
s 13
f 57/55/117 56/54/118 76/76/119 77/77/120
s off
f 58/137/121 59/136/122 36/34/123 47/45/124
s 3
f 36/97/92 34/108/91 46/109/125 47/96/126
s off
f 48/47/127 87/155/128 88/156/129 37/36/130
s 2
f 37/127/98 39/128/97 50/129/131 48/126/132
s off
f 39/37/133 85/158/134 86/157/135 50/48/136
s 3
f 40/104/104 38/105/103 49/102/137 51/103/138
s 11
f 52/51/139 53/50/140 42/39/106 41/40/105
s 2
f 41/125/110 43/124/109 54/123/141 52/122/142
s 12
f 43/41/114 44/42/113 55/53/143 54/52/144
s 3
f 44/107/116 42/112/115 53/113/145 55/110/146
s 8
f 12/10/87 59/136/90 78/138/147 35/33/148
s 13
f 57/55/117 46/43/149 34/31/150 56/54/118
s 7
f 16/14/81 56/54/84 34/31/151 13/11/152
s off
f 60/56/153 61/68/154 69/71/155 68/87/156
f 61/68/157 60/56/158 63/62/159 62/65/160
f 62/65/161 63/62/162 72/60/163 73/74/164
f 64/93/165 65/94/166 71/61/167 70/92/168
f 65/59/169 64/66/170 67/75/171 66/95/172
f 66/57/173 67/90/174 74/91/175 75/85/176
f 68/58/177 69/88/178 73/86/179 72/84/180
f 70/69/181 71/89/182 75/63/183 74/72/184
f 63/62/185 60/56/186 65/59/187 66/95/188
f 60/56/189 68/87/190 71/61/191 65/94/192
f 68/58/193 72/84/194 75/63/195 71/89/196
f 72/60/197 63/62/198 66/57/199 75/85/200
s 14
f 5/73/201 8/64/202 61/68/203 62/65/204
f 8/64/202 7/67/205 69/71/206 61/68/203
f 7/67/205 6/70/207 73/74/208 69/71/206
f 6/70/207 5/73/201 62/65/204 73/74/208
s off
f 67/75/209 64/66/210 70/69/211 74/72/212
s 13
f 77/77/120 76/76/119 33/133/213 45/131/214
s 15
f 35/33/215 78/138/216 79/78/217 80/79/218
f 80/79/218 79/78/217 77/77/219 45/131/220
s off
f 33/32/221 35/132/222 80/130/223 45/44/224
s 10
f 20/18/99 17/15/225 40/38/226 81/162/100
s off
f 82/161/227 81/162/228 40/38/229 51/49/230
f 83/159/231 82/161/232 51/49/233 49/46/234
f 84/160/235 83/159/236 49/46/237 38/35/238
s 9
f 24/22/96 84/160/95 38/35/239 21/19/240
s off
f 90/147/241 89/148/242 91/149/243 92/150/244
f 93/151/245 90/147/246 92/150/247 94/152/248
f 95/153/249 93/151/250 94/152/251 96/154/252
f 86/144/253 85/164/254 89/148/255 90/147/256
f 85/143/257 81/166/258 91/149/259 89/148/260
f 81/139/261 82/140/262 92/150/263 91/149/264
f 87/145/265 86/144/266 90/147/267 93/151/268
f 82/140/269 83/141/270 94/152/271 92/150/272
f 88/146/273 87/145/274 93/151/275 95/153/276
f 83/141/277 84/165/278 96/154/279 94/152/280
f 84/142/281 88/163/282 95/153/283 96/154/284
f 59/136/285 58/137/286 79/78/287 78/138/288
f 58/137/289 57/55/290 77/77/291 79/78/292
