# This file uses centimeters as units for non-parametric coordinates.

mtllib Counter.mtl
g default
v -10.902838 -0.050179 0.500000
v 10.514133 -0.050179 0.500000
v -10.902838 -0.050179 -0.500000
v 10.514133 -0.050179 -0.500000
v -10.902838 5.284018 0.499999
v -10.902838 5.284018 -0.500001
v 10.514134 5.284018 -0.500001
v 10.514134 5.284018 0.499999
v -10.902838 4.398338 0.500000
v -10.902838 4.398338 -0.500000
v 10.514134 4.398338 -0.500000
v 10.514134 4.398338 0.500000
v -10.902838 3.999962 0.500000
v -10.902838 3.999962 -0.500000
v 10.514134 3.999962 -0.500000
v 10.514134 3.999962 0.500000
v -10.902838 2.964936 0.500000
v -10.902838 2.964936 -0.500000
v 10.514134 2.964936 -0.500000
v 10.514134 2.964936 0.500000
v -10.902838 2.566557 0.500000
v -10.902838 2.566557 -0.500000
v 10.514134 2.566557 -0.500000
v 10.514134 2.566557 0.500000
v -10.902838 1.554458 0.500000
v -10.902838 1.554458 -0.500000
v 10.514134 1.554458 -0.500000
v 10.514134 1.554458 0.500000
v -10.902838 1.209197 0.500000
v -10.902838 1.209197 -0.500000
v 10.514134 1.209197 -0.500000
v 10.514134 1.209197 0.500000
v 10.514133 3.999962 1.818910
v -10.902838 3.999962 1.818910
v 10.514133 4.398338 1.818910
v -10.902838 4.398338 1.818910
v 10.514134 2.566557 1.818910
v -10.902838 2.566557 1.818910
v 10.514134 2.964936 1.818910
v -10.902838 2.964936 1.818910
v 10.514134 1.209197 1.818910
v -10.902838 1.209197 1.818910
v 10.514134 1.554458 1.818910
v -10.902838 1.554458 1.818910
v 10.514133 4.022641 1.854663
v -10.902838 4.022641 1.854663
v -10.902838 4.375659 1.854663
v 10.514134 2.589236 1.854663
v -10.902838 2.589236 1.854663
v 10.514134 2.942257 1.854663
v -10.902838 2.942257 1.854663
v 10.514134 1.228852 1.854663
v -10.902838 1.228852 1.854663
v 10.514134 1.534803 1.854663
v -10.902838 1.534803 1.854663
v 5.174701 3.999962 1.818910
v 5.174701 4.022641 1.854663
v 5.174701 4.375659 1.854663
v 5.174701 4.398338 1.818910
v 10.717621 5.326309 1.385262
v 10.675329 5.284018 1.342971
v -11.064032 5.284018 1.342971
v -11.106323 5.326309 1.385262
v 10.675329 5.706975 1.342971
v 10.717621 5.664684 1.385262
v -11.106323 5.664684 1.385262
v -11.064032 5.706975 1.342971
v 10.717621 5.326309 -1.080869
v 10.675329 5.284018 -1.038578
v 10.675329 5.706975 -1.038578
v 10.717621 5.664684 -1.080869
v -11.106323 5.326309 -1.080869
v -11.064032 5.284018 -1.038578
v -11.064032 5.706975 -1.038578
v -11.106323 5.664684 -1.080869
v 7.472613 3.999962 1.818910
v 7.472613 4.022641 1.854663
v 7.472613 4.398338 1.818910
v 7.472613 4.378808 1.824571
v 10.514133 4.376334 1.839363
v 5.171976 2.964936 1.818910
v 5.171977 2.942257 1.854663
v 5.171977 2.589236 1.854663
v 5.171977 2.566557 1.818910
v 7.489172 2.964936 1.818910
v 7.489172 2.942257 1.854663
v 7.489172 2.589236 1.854663
v 7.489172 2.566557 1.818910
v 5.174701 4.022641 2.951828
v 5.174701 3.999962 2.916076
v 7.472613 3.999962 2.916076
v 7.472613 4.022641 2.951828
v 5.174701 4.375659 2.951828
v 5.174701 4.398338 2.916076
v 7.472613 4.378808 2.921737
v 7.472613 4.398338 2.916076
vt 0.963720 0.886456
vt 0.980292 0.016189
vt 0.945172 0.886455
vt 0.648528 0.886431
vt 0.945173 0.867906
vt 0.648530 0.867882
vt 0.302897 0.411046
vt 0.945167 0.943470
vt 0.648523 0.943446
vt 0.980271 0.410741
vt 0.302877 0.313707
vt 0.945168 0.936081
vt 0.648524 0.936057
vt 0.980250 0.313726
vt 0.302879 0.280970
vt 0.945168 0.926229
vt 0.648525 0.926205
vt 0.980251 0.280990
vt 0.302885 0.183693
vt 0.945169 0.918839
vt 0.648525 0.918815
vt 0.980290 0.183720
vt 0.302887 0.151682
vt 0.945170 0.908741
vt 0.648526 0.908717
vt 0.980290 0.151709
vt 0.302891 0.055995
vt 0.945171 0.902337
vt 0.648527 0.902313
vt 0.980292 0.056021
vt 0.302882 0.355450
vt 0.611117 0.936054
vt 0.980247 0.368984
vt 0.302884 0.369303
vt 0.302882 0.225409
vt 0.980275 0.225443
vt 0.980265 0.239287
vt 0.302881 0.239253
vt 0.302889 0.097710
vt 0.980291 0.097736
vt 0.980291 0.109994
vt 0.302889 0.109967
vt 0.302882 0.356790
vt 0.610454 0.936474
vt 0.302884 0.367963
vt 0.302882 0.226748
vt 0.980275 0.226782
vt 0.980267 0.237948
vt 0.302881 0.237914
vt 0.302889 0.099000
vt 0.980291 0.099027
vt 0.980291 0.108704
vt 0.302889 0.108677
vt 0.395284 0.845922
vt 0.342437 0.902090
vt 0.969624 0.589026
vt 0.332671 0.590052
vt 0.969650 0.710241
vt 0.969632 0.601933
vt 0.341545 0.494691
vt 0.986378 0.495495
vt 0.345472 0.589126
vt 0.345402 0.697419
vt 0.962722 0.554565
vt 0.347383 0.586893
vt 0.968023 0.604215
vt 0.964092 0.516519
vt 0.967713 0.586791
vt 0.968042 0.695055
vt 0.350902 0.516598
vt 0.971065 0.496022
vt 0.347012 0.695138
vt 0.352328 0.554780
vt 0.343912 0.496139
vt 0.347067 0.604311
vt 0.565641 0.901195
vt 0.563972 0.902334
vt 0.565367 0.920863
vt 0.980248 0.368034
vt 0.945165 0.966847
vt 0.648521 0.966823
vt 0.629973 0.966821
vt 0.302918 0.450908
vt 0.345399 0.710325
vt 0.328603 0.495648
vt 0.347008 0.712606
vt 0.973436 0.494560
vt 0.968040 0.712523
vt 0.969652 0.697336
vt 0.330328 0.588599
vt 0.326396 0.497433
vt 0.988588 0.497277
vt 0.984769 0.588472
vt 0.982427 0.589930
vt 0.345460 0.602030
vt 0.983237 0.943053
vt 0.982574 0.943473
vt 0.963715 0.943472
vt 0.963716 0.936082
vt 0.963714 0.966848
vt 0.302892 0.016163
vt 0.983239 0.919263
vt 0.983238 0.925811
vt 0.982575 0.926232
vt 0.982576 0.918842
vt 0.963717 0.926230
vt 0.982577 0.908744
vt 0.982574 0.936084
vt 0.983237 0.936505
vt 0.983240 0.908379
vt 0.963719 0.902338
vt 0.982577 0.902340
vt 0.983240 0.902704
vt 0.629978 0.908715
vt 0.629978 0.902311
vt 0.629977 0.926203
vt 0.629977 0.918814
vt 0.629975 0.943445
vt 0.629976 0.936055
vt 0.980292 0.450602
vt 0.629980 0.886429
vt 0.610457 0.902674
vt 0.610456 0.908349
vt 0.611120 0.908714
vt 0.611120 0.902310
vt 0.610456 0.919233
vt 0.611119 0.918812
vt 0.611118 0.926201
vt 0.610455 0.925781
vt 0.610737 0.943035
vt 0.980232 0.356828
vt 0.611117 0.943443
vt 0.980231 0.355488
vt 0.963718 0.908742
vt 0.963718 0.918841
vt 0.341548 0.921611
vt 0.343218 0.920472
vt 0.511924 0.976900
vt 0.884609 0.226765
vt 0.884609 0.225426
vt 0.884610 0.237927
vt 0.884568 0.239267
vt 0.811304 0.226767
vt 0.811304 0.225428
vt 0.811286 0.237932
vt 0.811286 0.239272
vt 0.396522 0.902571
vt 0.395352 0.901000
vt 0.512892 0.901317
vt 0.512050 0.903059
vt 0.394941 0.921740
vt 0.396035 0.920173
vt 0.511763 0.920716
vt 0.511845 0.921826
vt 0.883974 0.368302
vt 0.883981 0.356902
vt 0.883974 0.368950
vt 0.883981 0.355552
vt 0.807990 0.356705
vt 0.807990 0.355370
vt 0.807984 0.367835
vt 0.807985 0.369170
vt 0.395032 0.976896
vt 0.340727 0.900946
vt 0.566468 0.921858
vt 0.512171 0.845935
vn 0.000000 0.000000 1.000000
vn 0.000000 0.000000 1.000000
vn 0.000000 0.000000 1.000000
vn 0.000000 0.000000 1.000000
vn 0.000000 0.000000 -1.000000
vn 0.000000 0.000000 -1.000000
vn 0.000000 0.000000 -1.000000
vn 0.000000 0.000000 -1.000000
vn 0.000000 -1.000000 0.000000
vn 0.000000 -1.000000 0.000000
vn 0.000000 -1.000000 0.000000
vn 0.000000 -1.000000 0.000000
vn 1.000000 -0.000001 0.000000
vn 1.000000 -0.000001 0.000000
vn 1.000000 -0.000001 0.000000
vn 1.000000 -0.000000 0.000000
vn -1.000000 0.000000 0.000000
vn -1.000000 0.000000 0.000000
vn -1.000000 0.000000 0.000000
vn -1.000000 0.000000 0.000000
vn -1.000000 -0.000000 0.000000
vn -1.000000 -0.000000 0.000000
vn -1.000000 -0.000000 0.000000
vn -1.000000 -0.000000 0.000000
vn 0.000000 -0.000001 -1.000000
vn 0.000000 -0.000001 -1.000000
vn 0.000000 -0.000001 -1.000000
vn 0.000000 -0.000001 -1.000000
vn 1.000000 0.000000 0.000000
vn 1.000000 0.000000 0.000000
vn 1.000000 0.000000 0.000000
vn 1.000000 0.000000 0.000000
vn 0.000000 0.000001 1.000000
vn 0.000000 0.000001 1.000000
vn 0.000000 0.000001 1.000000
vn 0.000000 0.000001 1.000000
vn -1.000000 0.000000 0.000000
vn -1.000000 0.000000 0.000000
vn 0.000000 0.000000 -1.000000
vn 0.000000 0.000000 -1.000000
vn 1.000000 0.000000 0.000000
vn 1.000000 0.000000 0.000000
vn 0.000000 0.000000 1.000000
vn 0.000000 0.000000 1.000000
vn 0.000000 0.000000 1.000000
vn 0.000000 0.000000 1.000000
vn -1.000000 0.000000 0.000000
vn -1.000000 0.000000 0.000000
vn 0.000000 0.000000 -1.000000
vn 0.000000 0.000000 -1.000000
vn 1.000000 0.000000 0.000000
vn 1.000000 0.000000 0.000000
vn 0.000000 0.000000 1.000000
vn 0.000000 0.000000 1.000000
vn 0.000000 0.000000 1.000000
vn 0.000000 0.000000 1.000000
vn -1.000000 0.000000 0.000000
vn -1.000000 0.000000 0.000000
vn 0.000000 0.000000 -1.000000
vn 0.000000 0.000000 -1.000000
vn 1.000000 0.000000 0.000000
vn 1.000000 0.000000 0.000000
vn 0.000000 0.000000 1.000000
vn 0.000000 0.000000 1.000000
vn 0.000000 0.000000 1.000000
vn 0.000000 0.000000 1.000000
vn -1.000000 0.000000 0.000000
vn -1.000000 0.000000 0.000000
vn 0.000000 0.000000 -1.000000
vn 0.000000 0.000000 -1.000000
vn 1.000000 0.000000 0.000000
vn 1.000000 0.000000 0.000000
vn 0.000000 0.000000 1.000000
vn 0.000000 0.000000 1.000000
vn 0.000000 0.000000 1.000000
vn 0.000000 0.000000 1.000000
vn 0.000000 0.000000 1.000000
vn 0.000000 0.000000 1.000000
vn 0.000000 0.000000 1.000000
vn 0.000000 0.000000 1.000000
vn 0.000000 -1.000000 0.000000
vn 0.000000 -1.000000 0.000000
vn 0.000000 -1.000000 0.000000
vn 0.000000 -1.000000 0.000000
vn 1.000000 0.000000 0.000001
vn 1.000000 0.000000 0.000001
vn 0.000000 1.000000 -0.000000
vn 0.000000 1.000000 0.000000
vn 0.000000 1.000000 0.000000
vn 0.000000 1.000000 -0.000000
vn -1.000000 0.000000 0.000000
vn -1.000000 0.000000 0.000000
vn 0.000000 -1.000000 0.000000
vn 0.000000 -1.000000 0.000000
vn 0.000000 -1.000000 -0.000000
vn 0.000000 -1.000000 -0.000000
vn 1.000000 0.000000 0.000000
vn 1.000000 0.000000 0.000000
vn -0.000000 1.000000 0.000000
vn 0.000000 1.000000 0.000000
vn -0.000000 1.000000 0.000000
vn -0.000000 1.000000 0.000000
vn -1.000000 0.000000 0.000000
vn -1.000000 0.000000 0.000000
vn 0.000000 -0.999895 0.014508
vn 0.000000 -0.999895 0.014508
vn 0.000000 -1.000000 0.000000
vn 0.000000 -1.000000 0.000000
vn 1.000000 0.000000 0.000000
vn 1.000000 0.000000 0.000000
vn 0.000000 1.000000 0.000000
vn 0.000000 1.000000 0.000000
vn 0.000000 0.999895 0.014508
vn 0.000000 0.999895 0.014508
vn -1.000000 0.000000 0.000000
vn -1.000000 0.000000 0.000000
vn 0.000000 -0.844440 0.535651
vn 0.000000 -0.844440 0.535651
vn 0.000000 -0.844440 0.535651
vn 0.000000 -0.844440 0.535651
vn 0.000000 0.844433 0.535661
vn 0.000000 0.844433 0.535661
vn 0.000000 0.844433 0.535661
vn 0.000000 0.844433 0.535661
vn -1.000000 0.000000 0.000000
vn -1.000000 0.000000 0.000000
vn 0.000000 -0.844435 0.535657
vn 0.000000 -0.844435 0.535657
vn 0.000000 -0.844435 0.535657
vn 0.000000 -0.844435 0.535657
vn 1.000000 0.000000 0.000000
vn 1.000000 0.000000 0.000000
vn 0.000000 0.844434 0.535659
vn 0.000000 0.844434 0.535659
vn 0.000000 0.844435 0.535659
vn 0.000000 0.844434 0.535659
vn -1.000000 0.000000 0.000000
vn -1.000000 0.000000 0.000000
vn 0.000000 -0.876304 0.481759
vn 0.000000 -0.876304 0.481759
vn 1.000000 0.000000 0.000000
vn 1.000000 0.000000 0.000000
vn 0.000000 0.876304 0.481758
vn 0.000000 0.876304 0.481758
vn -1.000000 0.000000 0.000000
vn -1.000000 0.000000 0.000000
vn 0.000000 1.000000 -0.000000
vn 0.000000 1.000000 -0.000000
vn 0.000000 -0.844436 0.535657
vn 0.000000 -0.844436 0.535657
vn 0.000000 -0.844436 0.535657
vn 0.000000 -0.844436 0.535657
vn 0.000000 -1.000000 0.000000
vn 0.000000 -1.000000 0.000000
vn 0.707112 -0.707101 0.000000
vn 0.707112 -0.707101 0.000000
vn 0.707112 -0.707101 0.000000
vn 0.707112 -0.707101 0.000000
vn 0.000000 -0.707103 0.707110
vn 0.000000 -0.707103 0.707110
vn 0.000000 -0.707103 0.707110
vn 0.000000 -0.707103 0.707110
vn -0.707112 -0.707101 0.000000
vn -0.707112 -0.707101 0.000000
vn -0.707112 -0.707101 0.000000
vn -0.707112 -0.707101 0.000000
vn 0.707112 0.707101 0.000000
vn 0.707112 0.707101 0.000000
vn 0.707112 0.707101 0.000000
vn 0.707112 0.707101 0.000000
vn 0.000000 0.707103 0.707110
vn 0.000000 0.707103 0.707110
vn 0.000000 0.707103 0.707110
vn 0.000000 0.707103 0.707110
vn -0.707112 0.707101 0.000000
vn -0.707112 0.707101 0.000000
vn -0.707112 0.707101 0.000000
vn -0.707112 0.707101 0.000000
vn 0.000000 -0.707103 -0.707110
vn 0.000000 -0.707103 -0.707110
vn 0.000000 -0.707103 -0.707110
vn 0.000000 -0.707103 -0.707110
vn 0.000000 0.707103 -0.707110
vn 0.000000 0.707103 -0.707110
vn 0.000000 0.707103 -0.707110
vn 0.000000 0.707103 -0.707110
vn 0.000000 0.000000 1.000000
vn 0.000000 0.000000 1.000000
vn 0.000000 0.000000 1.000000
vn 0.000000 0.000000 1.000000
vn 1.000000 0.000000 0.000000
vn 1.000000 0.000000 0.000000
vn 1.000000 0.000000 0.000000
vn 1.000000 0.000000 0.000000
vn 0.000000 0.000000 -1.000000
vn 0.000000 0.000000 -1.000000
vn 0.000000 0.000000 -1.000000
vn 0.000000 0.000000 -1.000000
vn -1.000000 0.000000 0.000000
vn -1.000000 0.000000 0.000000
vn -1.000000 0.000000 0.000000
vn -1.000000 0.000000 0.000000
vn 0.000000 -1.000000 0.000000
vn 0.000000 -1.000000 0.000000
vn 0.000000 -1.000000 0.000000
vn 0.000000 -1.000000 0.000000
vn 0.000000 -1.000000 0.000000
vn 0.000000 -1.000000 0.000000
vn 0.000000 -1.000000 0.000000
vn 0.000000 -1.000000 0.000000
vn 0.000000 1.000000 0.000000
vn 0.000000 1.000000 0.000000
vn 0.000000 1.000000 0.000000
vn 0.000000 1.000000 0.000000
vn 0.000000 -0.844435 0.535658
vn 0.000000 -0.844435 0.535658
vn 0.000000 -0.844435 0.535658
vn 0.000000 -0.844435 0.535658
vn -0.001842 0.532269 0.846573
vn -0.001842 0.532269 0.846573
vn -0.002382 0.094796 0.995494
vn -0.002382 0.094643 0.995509
vn -0.002401 0.063813 0.997959
vn -0.002401 0.063813 0.997959
vn 1.000000 0.000000 0.000000
vn 1.000000 0.000000 0.000000
vn 1.000000 0.000000 0.000000
vn 1.000000 0.000000 0.000000
vn 0.000000 1.000000 0.000000
vn 0.000000 1.000000 0.000000
vn 0.000000 0.844434 0.535659
vn 0.000000 0.844434 0.535659
vn 0.000000 0.844434 0.535659
vn 0.000000 0.844434 0.535659
vn -0.000000 0.000000 1.000000
vn -0.000000 0.000000 1.000000
vn -0.000000 0.000000 1.000000
vn -0.000000 0.000000 1.000000
vn 0.000000 -0.844435 0.535658
vn 0.000000 -0.844435 0.535658
vn 0.000000 -0.844435 0.535658
vn 0.000000 -0.844435 0.535658
vn 0.000000 -1.000000 -0.000000
vn 0.000000 -1.000000 -0.000000
vn 0.004194 0.700340 0.713797
vn 0.004194 0.700340 0.713797
vn 0.004194 0.700340 0.713797
vn 0.004194 0.700340 0.713797
vn 0.006512 0.042392 0.999080
vn 0.006512 0.042392 0.999080
vn 0.006512 0.042392 0.999080
vn 0.006512 0.042392 0.999080
vn -1.000000 0.000000 0.000000
vn -1.000000 0.000000 0.000000
vn -1.000000 0.000000 0.000000
vn -1.000000 0.000000 0.000000
vn 0.000000 -1.000000 0.000000
vn 0.000000 -1.000000 0.000000
vn 0.000000 -1.000000 0.000000
vn 0.000000 -1.000000 0.000000
vn 1.000000 0.000000 0.000000
vn 1.000000 0.000000 0.000000
vn 1.000000 0.000000 0.000000
vn 1.000000 0.000000 0.000000
vn -1.000000 0.000019 0.000000
vn -1.000000 0.000019 0.000000
vn -1.000000 0.000019 0.000000
vn -1.000000 0.000019 0.000000
vn 1.000000 0.000000 0.000000
vn 1.000000 0.000000 0.000000
vn 1.000000 0.000000 0.000000
vn 1.000000 0.000000 0.000000
vn 0.000000 1.000000 0.000000
vn 0.000000 1.000000 0.000000
vn 0.000000 1.000000 0.000000
vn 0.000000 1.000000 0.000000
vn -1.000000 -0.000001 0.000000
vn -1.000000 -0.000001 0.000000
vn -1.000000 -0.000001 0.000000
vn -1.000000 -0.000001 0.000000
vn 1.000000 0.000000 0.000000
vn 1.000000 0.000000 0.000000
vn 1.000000 0.000000 0.000000
vn 1.000000 0.000000 0.000000
vn -0.000000 0.844434 0.535659
vn -0.000000 0.844434 0.535659
vn -0.000000 0.844434 0.535659
vn -0.000000 0.844434 0.535659
vn 0.000000 0.000000 1.000000
vn 0.000000 0.000000 1.000000
vn 0.000000 0.000000 1.000000
vn 0.000000 0.000000 1.000000
vn -0.000000 -0.844435 0.535658
vn -0.000000 -0.844435 0.535658
vn -0.000000 -0.844435 0.535658
vn -0.000000 -0.844435 0.535658
s off
g Mostrador2
usemtl initialShadingGroup
f 32/30/1 29/27/2 1/101/3 2/2/4
s 1
f 3/3/5 30/28/6 31/29/7 4/4/8
s off
f 1/5/9 3/3/10 4/4/11 2/6/12
s 2
f 2/121/13 4/4/14 31/29/15 32/115/16
s 3
f 3/3/17 1/1/18 29/111/19 30/28/20
f 10/8/21 9/98/22 5/100/23 6/80/24
s 1
f 10/8/25 6/80/26 7/81/27 11/9/28
s 2
f 12/118/29 11/9/30 7/81/31 8/82/32
s off
f 8/120/33 5/83/34 9/7/35 12/10/36
s 3
f 14/12/37 13/99/38 9/98/22 10/8/21
s 1
f 14/12/39 10/8/25 11/9/28 15/13/40
s 2
f 16/119/41 15/13/42 11/9/30 12/118/29
s off
f 46/43/43 57/159/44 58/161/45 47/45/46
s 3
f 18/16/47 17/106/48 13/99/38 14/12/37
s 1
f 18/16/49 14/12/39 15/13/40 19/17/50
s 2
f 20/116/51 19/17/52 15/13/42 16/119/41
s off
f 20/18/53 16/14/54 13/11/55 17/15/56
s 3
f 22/20/57 21/135/58 17/106/48 18/16/47
s 1
f 22/20/59 18/16/49 19/17/50 23/21/60
s 2
f 24/117/61 23/21/62 19/17/52 20/116/51
s off
f 50/48/63 86/141/64 87/139/65 48/47/66
s 3
f 26/24/67 25/134/68 21/135/58 22/20/57
s 1
f 26/24/69 22/20/59 23/21/60 27/25/70
s 2
f 28/114/71 27/25/72 23/21/62 24/117/61
s off
f 24/22/73 21/19/74 25/23/75 28/26/76
s 3
f 30/28/20 29/111/19 25/134/68 26/24/67
s 1
f 30/28/6 26/24/69 27/25/70 31/29/7
s 2
f 32/115/16 31/29/15 27/25/72 28/114/71
s off
f 54/52/77 55/53/78 53/50/79 52/51/80
s 7
f 16/14/81 33/133/82 76/158/83 56/160/84
s 2
f 16/119/41 12/118/29 35/132/85 33/32/86
s 8
f 12/10/87 9/7/88 36/34/89 59/162/90
s 3
f 9/98/22 13/99/38 34/108/91 36/97/92
s 9
f 37/36/93 88/140/94 84/144/95 24/22/96
s 2
f 24/117/61 20/116/51 39/128/97 37/127/98
s 10
f 20/18/99 81/146/100 85/142/101 39/37/102
s 3
f 17/106/48 21/135/58 38/105/103 40/104/104
s 11
f 41/40/105 42/39/106 29/27/107 32/30/108
s 2
f 32/115/16 28/114/71 43/124/109 41/125/110
s 12
f 28/26/111 25/23/112 44/42/113 43/41/114
s 3
f 25/134/68 29/111/19 42/112/115 44/107/116
s off
f 89/147/117 90/148/118 91/149/119 92/150/120
f 58/161/121 59/162/122 36/34/123 47/45/124
s 3
f 36/97/92 34/108/91 46/109/125 47/96/126
s off
f 48/47/127 87/139/128 88/140/129 37/36/130
s 2
f 37/127/98 39/128/97 50/129/131 48/126/132
s off
f 39/37/133 85/142/134 86/141/135 50/48/136
s 3
f 40/104/104 38/105/103 49/102/137 51/103/138
s 11
f 52/51/139 53/50/140 42/39/106 41/40/105
s 2
f 41/125/110 43/124/109 54/123/141 52/122/142
s 12
f 43/41/114 44/42/113 55/53/143 54/52/144
s 3
f 44/107/116 42/112/115 53/113/145 55/110/146
s 8
f 12/10/87 59/162/90 78/157/147 35/33/148
s off
f 57/159/149 46/43/150 34/31/151 56/160/152
s 7
f 16/14/81 56/160/84 34/31/153 13/11/154
s off
f 60/56/155 61/68/156 69/71/157 68/87/158
f 61/68/159 60/56/160 63/62/161 62/65/162
f 62/65/163 63/62/164 72/60/165 73/74/166
f 64/93/167 65/94/168 71/61/169 70/92/170
f 65/59/171 64/66/172 67/75/173 66/95/174
f 66/57/175 67/90/176 74/91/177 75/85/178
f 68/58/179 69/88/180 73/86/181 72/84/182
f 70/69/183 71/89/184 75/63/185 74/72/186
f 63/62/187 60/56/188 65/59/189 66/95/190
f 60/56/191 68/87/192 71/61/193 65/94/194
f 68/58/195 72/84/196 75/63/197 71/89/198
f 72/60/199 63/62/200 66/57/201 75/85/202
s 13
f 5/73/203 8/64/204 61/68/205 62/65/206
f 8/64/204 7/67/207 69/71/208 61/68/205
f 7/67/207 6/70/209 73/74/210 69/71/208
f 6/70/209 5/73/203 62/65/206 73/74/210
s off
f 67/75/211 64/66/212 70/69/213 74/72/214
f 77/156/215 76/158/216 33/133/217 45/131/218
s 14
f 35/33/219 78/157/220 79/155/221 80/79/222
f 80/79/222 79/155/221 77/156/223 45/131/224
s off
f 33/32/225 35/132/226 80/130/227 45/44/228
s 10
f 20/18/99 17/15/229 40/38/230 81/146/100
s off
f 82/145/231 81/146/232 40/38/233 51/49/234
f 83/143/235 82/145/236 51/49/237 49/46/238
f 84/144/239 83/143/240 49/46/241 38/35/242
s 9
f 24/22/96 84/144/95 38/35/243 21/19/244
s off
f 94/151/245 93/152/246 95/153/247 96/154/248
f 93/152/249 89/147/250 92/150/251 95/153/252
f 57/55/253 56/164/254 90/148/255 89/147/256
f 56/54/257 76/166/258 91/149/259 90/148/260
f 76/76/261 77/77/262 92/150/263 91/149/264
f 59/136/265 58/137/266 93/152/267 94/151/268
f 79/78/269 78/165/270 96/154/271 95/153/272
f 78/138/273 59/163/274 94/151/275 96/154/276
f 58/137/277 57/55/278 89/147/279 93/152/280
f 77/77/281 79/78/282 95/153/283 92/150/284
f 81/146/285 82/145/286 86/141/287 85/142/288
f 82/145/289 83/143/290 87/139/291 86/141/292
f 83/143/293 84/144/294 88/140/295 87/139/296
