# This file uses centimeters as units for non-parametric coordinates.

mtllib Counter.mtl
g default
v -10.902838 -0.050179 0.500000
v 10.514133 -0.050179 0.500000
v -10.902838 -0.050179 -0.500000
v 10.514133 -0.050179 -0.500000
v -10.902838 5.284017 0.499999
v -10.902838 5.284017 -0.500001
v 10.514134 5.284017 -0.500001
v 10.514134 5.284017 0.499999
v -10.902838 4.398338 0.500000
v -10.902838 4.398338 -0.500000
v 10.514134 4.398338 -0.500000
v 10.514134 4.398338 0.500000
v -10.902838 3.999962 0.500000
v -10.902838 3.999962 -0.500000
v 10.514134 3.999962 -0.500000
v 10.514134 3.999962 0.500000
v -10.902838 2.964936 0.500000
v -10.902838 2.964936 -0.500000
v 10.514134 2.964936 -0.500000
v 10.514134 2.964936 0.500000
v -10.902838 2.566557 0.500000
v -10.902838 2.566557 -0.500000
v 10.514134 2.566557 -0.500000
v 10.514134 2.566557 0.500000
v -10.902838 1.554458 0.500000
v -10.902838 1.554458 -0.500000
v 10.514134 1.554458 -0.500000
v 10.514134 1.554458 0.500000
v -10.902838 1.209197 0.500000
v -10.902838 1.209197 -0.500000
v 10.514134 1.209197 -0.500000
v 10.514134 1.209197 0.500000
v 10.514133 3.999962 1.818910
v -10.902838 3.999962 1.818910
v 10.514133 4.398338 1.818910
v -10.902838 4.398338 1.818910
v 10.514134 2.566557 1.818910
v -10.902838 2.566557 1.818910
v 10.514134 2.964936 1.818910
v -10.902838 2.964936 1.818910
v 10.514134 1.209197 1.818910
v -10.902838 1.209197 1.818910
v 10.514134 1.554458 1.818910
v -10.902838 1.554458 1.818910
v 10.514133 4.022641 1.854663
v -10.902838 4.022641 1.854663
v -10.902838 4.375659 1.854663
v 10.514134 2.589236 1.854663
v -10.902838 2.589236 1.854663
v 10.514134 2.942257 1.854663
v -10.902838 2.942257 1.854663
v 10.514134 1.228852 1.854663
v -10.902838 1.228852 1.854663
v 10.514134 1.534803 1.854663
v -10.902838 1.534803 1.854663
v 5.069315 3.999962 1.818910
v 5.069315 4.022641 1.854663
v 5.069314 4.375659 1.854663
v 5.069315 4.398338 1.818910
v 10.717621 5.326309 1.385262
v 10.675329 5.284017 1.342971
v -11.064032 5.284017 1.342971
v -11.106323 5.326309 1.385262
v 10.675329 5.706975 1.342971
v 10.717621 5.664683 1.385262
v -11.106323 5.664683 1.385262
v -11.064032 5.706975 1.342971
v 10.717621 5.326309 -1.080869
v 10.675329 5.284017 -1.038578
v 10.675329 5.706975 -1.038578
v 10.717621 5.664683 -1.080869
v -11.106323 5.326309 -1.080869
v -11.064032 5.284017 -1.038578
v -11.064032 5.706975 -1.038578
v -11.106323 5.664683 -1.080869
v 7.472613 3.999962 1.818910
v 7.472613 4.022641 1.854663
v 7.472613 4.398338 1.818910
v 7.472613 4.378808 1.824571
v 10.514133 4.376334 1.839363
v 5.171976 2.964936 1.818910
v 5.171977 2.942257 1.854663
v 5.171977 2.589236 1.854663
v 5.171977 2.566557 1.818910
v 7.489172 2.964936 1.818910
v 7.489172 2.942257 1.854663
v 7.489172 2.589236 1.854663
v 7.489172 2.566557 1.818910
v 7.489172 2.964936 2.911771
v 7.489172 2.942257 2.947523
v 5.171976 2.964936 2.911771
v 5.171977 2.942257 2.947523
v 7.489172 2.589236 2.947523
v 5.171977 2.589236 2.947523
v 7.489172 2.566557 2.911771
v 5.171977 2.566557 2.911771
vt 0.963720 0.886456
vt 0.980292 0.016189
vt 0.945172 0.886455
vt 0.648528 0.886431
vt 0.945173 0.867906
vt 0.648530 0.867882
vt 0.302897 0.411046
vt 0.945167 0.943470
vt 0.648523 0.943446
vt 0.980271 0.410741
vt 0.302877 0.313707
vt 0.945168 0.936081
vt 0.648524 0.936057
vt 0.980250 0.313726
vt 0.302879 0.280970
vt 0.945168 0.926229
vt 0.648525 0.926205
vt 0.980251 0.280990
vt 0.302885 0.183693
vt 0.945169 0.918839
vt 0.648525 0.918815
vt 0.980290 0.183720
vt 0.302887 0.151682
vt 0.945170 0.908741
vt 0.648526 0.908717
vt 0.980290 0.151709
vt 0.302891 0.055995
vt 0.945171 0.902337
vt 0.648527 0.902313
vt 0.980292 0.056021
vt 0.302882 0.355450
vt 0.611117 0.936054
vt 0.980247 0.368984
vt 0.302884 0.369303
vt 0.302882 0.225409
vt 0.980275 0.225443
vt 0.980265 0.239287
vt 0.302881 0.239253
vt 0.302889 0.097710
vt 0.980291 0.097736
vt 0.980291 0.109994
vt 0.302889 0.109967
vt 0.302882 0.356790
vt 0.610454 0.936474
vt 0.302884 0.367963
vt 0.302882 0.226748
vt 0.980275 0.226782
vt 0.980267 0.237948
vt 0.302881 0.237914
vt 0.302889 0.099000
vt 0.980291 0.099027
vt 0.980291 0.108704
vt 0.302889 0.108677
vt 0.807990 0.355370
vt 0.807990 0.356705
vt 0.969624 0.589026
vt 0.332671 0.590052
vt 0.969650 0.710241
vt 0.969632 0.601933
vt 0.341545 0.494691
vt 0.986378 0.495495
vt 0.345472 0.589126
vt 0.345402 0.697419
vt 0.962722 0.554565
vt 0.347383 0.586893
vt 0.968023 0.604215
vt 0.964092 0.516519
vt 0.967713 0.586791
vt 0.968042 0.695055
vt 0.350902 0.516598
vt 0.971065 0.496022
vt 0.347012 0.695138
vt 0.352328 0.554780
vt 0.343912 0.496139
vt 0.347067 0.604311
vt 0.883981 0.355552
vt 0.883981 0.356902
vt 0.883974 0.368302
vt 0.980248 0.368034
vt 0.945165 0.966847
vt 0.648521 0.966823
vt 0.629973 0.966821
vt 0.302918 0.450908
vt 0.345399 0.710325
vt 0.328603 0.495648
vt 0.347008 0.712606
vt 0.973436 0.494560
vt 0.968040 0.712523
vt 0.969652 0.697336
vt 0.330328 0.588599
vt 0.326396 0.497433
vt 0.988588 0.497277
vt 0.984769 0.588472
vt 0.982427 0.589930
vt 0.345460 0.602030
vt 0.983237 0.943053
vt 0.982574 0.943473
vt 0.963715 0.943472
vt 0.963716 0.936082
vt 0.963714 0.966848
vt 0.302892 0.016163
vt 0.983239 0.919263
vt 0.983238 0.925811
vt 0.982575 0.926232
vt 0.982576 0.918842
vt 0.963717 0.926230
vt 0.982577 0.908744
vt 0.982574 0.936084
vt 0.983237 0.936505
vt 0.983240 0.908379
vt 0.963719 0.902338
vt 0.982577 0.902340
vt 0.983240 0.902704
vt 0.629978 0.908715
vt 0.629978 0.902311
vt 0.629977 0.926203
vt 0.629977 0.918814
vt 0.629975 0.943445
vt 0.629976 0.936055
vt 0.980292 0.450602
vt 0.629980 0.886429
vt 0.610457 0.902674
vt 0.610456 0.908349
vt 0.611120 0.908714
vt 0.611120 0.902310
vt 0.610456 0.919233
vt 0.611119 0.918812
vt 0.611118 0.926201
vt 0.610455 0.925781
vt 0.610737 0.943035
vt 0.980232 0.356828
vt 0.611117 0.943443
vt 0.980231 0.355488
vt 0.963718 0.908742
vt 0.963718 0.918841
vt 0.807985 0.369170
vt 0.807984 0.367835
vt 0.883974 0.368950
vt 0.341548 0.921611
vt 0.343218 0.920472
vt 0.342437 0.902090
vt 0.395284 0.845922
vt 0.511924 0.976900
vt 0.564760 0.920714
vt 0.563972 0.902334
vt 0.565641 0.901195
vt 0.510673 0.920255
vt 0.511845 0.921826
vt 0.394941 0.921740
vt 0.396035 0.920173
vt 0.511157 0.902654
vt 0.396522 0.902571
vt 0.512251 0.901088
vt 0.395352 0.901000
vt 0.884609 0.226765
vt 0.884609 0.225426
vt 0.884610 0.237927
vt 0.884568 0.239267
vt 0.811304 0.226767
vt 0.811304 0.225428
vt 0.811286 0.237932
vt 0.811286 0.239272
vt 0.512171 0.845935
vt 0.566468 0.921858
vt 0.340727 0.900946
vt 0.395032 0.976896
vn 0.000000 0.000000 1.000000
vn 0.000000 0.000000 1.000000
vn 0.000000 0.000000 1.000000
vn 0.000000 0.000000 1.000000
vn 0.000000 0.000000 -1.000000
vn 0.000000 0.000000 -1.000000
vn 0.000000 0.000000 -1.000000
vn 0.000000 0.000000 -1.000000
vn 0.000000 -1.000000 0.000000
vn 0.000000 -1.000000 0.000000
vn 0.000000 -1.000000 0.000000
vn 0.000000 -1.000000 0.000000
vn 1.000000 -0.000001 0.000000
vn 1.000000 -0.000001 0.000000
vn 1.000000 -0.000001 0.000000
vn 1.000000 -0.000000 0.000000
vn -1.000000 0.000000 0.000000
vn -1.000000 0.000000 0.000000
vn -1.000000 0.000000 0.000000
vn -1.000000 0.000000 0.000000
vn -1.000000 -0.000000 0.000000
vn -1.000000 -0.000000 0.000000
vn -1.000000 -0.000000 0.000000
vn -1.000000 -0.000000 0.000000
vn 0.000000 -0.000001 -1.000000
vn 0.000000 -0.000001 -1.000000
vn 0.000000 -0.000001 -1.000000
vn 0.000000 -0.000001 -1.000000
vn 1.000000 0.000000 0.000000
vn 1.000000 0.000000 0.000000
vn 1.000000 0.000000 0.000000
vn 1.000000 0.000000 0.000000
vn 0.000000 0.000001 1.000000
vn 0.000000 0.000001 1.000000
vn 0.000000 0.000001 1.000000
vn 0.000000 0.000001 1.000000
vn -1.000000 0.000000 0.000000
vn -1.000000 0.000000 0.000000
vn 0.000000 0.000000 -1.000000
vn 0.000000 0.000000 -1.000000
vn 1.000000 0.000000 0.000000
vn 1.000000 0.000000 0.000000
vn 0.000000 0.000000 1.000000
vn 0.000000 0.000000 1.000000
vn 0.000000 0.000000 1.000000
vn 0.000000 0.000000 1.000000
vn -1.000000 0.000000 0.000000
vn -1.000000 0.000000 0.000000
vn 0.000000 0.000000 -1.000000
vn 0.000000 0.000000 -1.000000
vn 1.000000 0.000000 0.000000
vn 1.000000 0.000000 0.000000
vn 0.000000 0.000000 1.000000
vn 0.000000 0.000000 1.000000
vn 0.000000 0.000000 1.000000
vn 0.000000 0.000000 1.000000
vn -1.000000 0.000000 0.000000
vn -1.000000 0.000000 0.000000
vn 0.000000 0.000000 -1.000000
vn 0.000000 0.000000 -1.000000
vn 1.000000 0.000000 0.000000
vn 1.000000 0.000000 0.000000
vn 0.000000 0.000000 1.000000
vn 0.000000 0.000000 1.000000
vn 0.000000 0.000000 1.000000
vn 0.000000 0.000000 1.000000
vn -1.000000 0.000000 0.000000
vn -1.000000 0.000000 0.000000
vn 0.000000 0.000000 -1.000000
vn 0.000000 0.000000 -1.000000
vn 1.000000 0.000000 0.000000
vn 1.000000 0.000000 0.000000
vn 0.000000 0.000000 1.000000
vn 0.000000 0.000000 1.000000
vn 0.000000 0.000000 1.000000
vn 0.000000 0.000000 1.000000
vn 0.000000 0.000000 1.000000
vn 0.000000 0.000000 1.000000
vn 0.000000 0.000000 1.000000
vn 0.000000 0.000000 1.000000
vn 0.000000 -1.000000 0.000000
vn 0.000000 -1.000000 0.000000
vn 0.000000 -1.000000 0.000000
vn 0.000000 -1.000000 -0.000000
vn 1.000000 0.000000 0.000001
vn 1.000000 0.000000 0.000001
vn 0.000000 1.000000 0.000000
vn 0.000000 1.000000 0.000000
vn 0.000000 1.000000 0.000000
vn 0.000000 1.000000 0.000000
vn -1.000000 0.000000 0.000000
vn -1.000000 0.000000 0.000000
vn 0.000000 -1.000000 0.000000
vn 0.000000 -1.000000 0.000000
vn 0.000000 -1.000000 -0.000000
vn 0.000000 -1.000000 -0.000000
vn 1.000000 0.000000 0.000000
vn 1.000000 0.000000 0.000000
vn -0.000000 1.000000 0.000000
vn 0.000000 1.000000 0.000000
vn -0.000000 1.000000 0.000000
vn -0.000000 1.000000 0.000000
vn -1.000000 0.000000 0.000000
vn -1.000000 0.000000 0.000000
vn 0.000000 -0.999895 0.014508
vn 0.000000 -0.999895 0.014508
vn 0.000000 -1.000000 0.000000
vn 0.000000 -1.000000 0.000000
vn 1.000000 0.000000 0.000000
vn 1.000000 0.000000 0.000000
vn 0.000000 1.000000 0.000000
vn 0.000000 1.000000 0.000000
vn 0.000000 0.999895 0.014508
vn 0.000000 0.999895 0.014508
vn -1.000000 0.000000 0.000000
vn -1.000000 0.000000 0.000000
vn 0.000000 -0.844435 0.535659
vn 0.000000 -0.844435 0.535659
vn 0.000000 -0.844436 0.535657
vn 0.000000 -0.844436 0.535657
vn 0.000000 0.844437 0.535655
vn 0.000000 0.844437 0.535655
vn 0.000000 0.844437 0.535655
vn 0.000000 0.844437 0.535655
vn -1.000000 0.000000 0.000000
vn -1.000000 0.000000 0.000000
vn 0.000000 -0.844435 0.535657
vn 0.000000 -0.844435 0.535657
vn 0.000000 -0.844435 0.535657
vn 0.000000 -0.844435 0.535657
vn 1.000000 0.000000 0.000000
vn 1.000000 0.000000 0.000000
vn 0.000000 0.844434 0.535659
vn 0.000000 0.844434 0.535659
vn 0.000000 0.844435 0.535659
vn 0.000000 0.844434 0.535659
vn -1.000000 0.000000 0.000000
vn -1.000000 0.000000 0.000000
vn 0.000000 -0.876304 0.481759
vn 0.000000 -0.876304 0.481759
vn 1.000000 0.000000 0.000000
vn 1.000000 0.000000 0.000000
vn 0.000000 0.876304 0.481758
vn 0.000000 0.876304 0.481758
vn -1.000000 0.000000 0.000000
vn -1.000000 0.000000 0.000000
vn 0.000000 1.000000 0.000000
vn 0.000000 1.000000 0.000000
vn 0.000000 -0.844434 0.535659
vn 0.000000 -0.844434 0.535659
vn 0.000000 -1.000000 -0.000000
vn 0.000000 -1.000000 -0.000000
vn 0.707112 -0.707101 0.000000
vn 0.707112 -0.707101 0.000000
vn 0.707112 -0.707101 0.000000
vn 0.707112 -0.707101 0.000000
vn 0.000000 -0.707103 0.707110
vn 0.000000 -0.707103 0.707110
vn 0.000000 -0.707103 0.707110
vn 0.000000 -0.707103 0.707110
vn -0.707112 -0.707101 0.000000
vn -0.707112 -0.707101 0.000000
vn -0.707112 -0.707101 0.000000
vn -0.707112 -0.707101 0.000000
vn 0.707112 0.707101 0.000000
vn 0.707112 0.707101 0.000000
vn 0.707112 0.707101 0.000000
vn 0.707112 0.707101 0.000000
vn 0.000000 0.707103 0.707110
vn 0.000000 0.707103 0.707110
vn 0.000000 0.707103 0.707110
vn 0.000000 0.707103 0.707110
vn -0.707112 0.707101 0.000000
vn -0.707112 0.707101 0.000000
vn -0.707112 0.707101 0.000000
vn -0.707112 0.707101 0.000000
vn 0.000000 -0.707103 -0.707110
vn 0.000000 -0.707103 -0.707110
vn 0.000000 -0.707103 -0.707110
vn 0.000000 -0.707103 -0.707110
vn 0.000000 0.707103 -0.707110
vn 0.000000 0.707103 -0.707110
vn 0.000000 0.707103 -0.707110
vn 0.000000 0.707103 -0.707110
vn 0.000000 0.000000 1.000000
vn 0.000000 0.000000 1.000000
vn 0.000000 0.000000 1.000000
vn 0.000000 0.000000 1.000000
vn 1.000000 0.000000 0.000000
vn 1.000000 0.000000 0.000000
vn 1.000000 0.000000 0.000000
vn 1.000000 0.000000 0.000000
vn 0.000000 0.000000 -1.000000
vn 0.000000 0.000000 -1.000000
vn 0.000000 0.000000 -1.000000
vn 0.000000 0.000000 -1.000000
vn -1.000000 0.000000 0.000000
vn -1.000000 0.000000 0.000000
vn -1.000000 0.000000 0.000000
vn -1.000000 0.000000 0.000000
vn 0.000000 -1.000000 0.000000
vn 0.000000 -1.000000 0.000000
vn 0.000000 -1.000000 0.000000
vn 0.000000 -1.000000 0.000000
vn 0.000000 -1.000000 0.000000
vn 0.000000 -1.000000 0.000000
vn 0.000000 -1.000000 0.000000
vn 0.000000 -1.000000 0.000000
vn 0.000000 1.000000 0.000000
vn 0.000000 1.000000 0.000000
vn 0.000000 1.000000 0.000000
vn 0.000000 1.000000 0.000000
vn 0.000000 -0.844435 0.535658
vn 0.000000 -0.844435 0.535658
vn -0.001842 0.532269 0.846573
vn -0.001842 0.532269 0.846573
vn -0.002382 0.094796 0.995494
vn -0.002382 0.094643 0.995509
vn -0.002401 0.063813 0.997959
vn -0.002401 0.063813 0.997959
vn 1.000000 0.000000 0.000000
vn 1.000000 0.000000 0.000000
vn 1.000000 0.000000 0.000000
vn 1.000000 0.000000 0.000000
vn 0.000000 1.000000 0.000000
vn 0.000000 1.000000 0.000000
vn 0.000000 0.844434 0.535659
vn 0.000000 0.844434 0.535659
vn 0.000000 0.844434 0.535659
vn 0.000000 0.844434 0.535659
vn -0.000000 0.000000 1.000000
vn -0.000000 0.000000 1.000000
vn -0.000000 0.000000 1.000000
vn -0.000000 0.000000 1.000000
vn 0.000000 -0.844435 0.535658
vn 0.000000 -0.844435 0.535658
vn 0.000000 -0.844435 0.535658
vn 0.000000 -0.844435 0.535658
vn 0.000000 -1.000000 -0.000000
vn 0.000000 -1.000000 -0.000000
vn -0.000000 0.844432 0.535662
vn -0.000000 0.844432 0.535662
vn -0.000000 0.844432 0.535662
vn -0.000000 0.844432 0.535662
vn -0.000000 0.000000 1.000000
vn -0.000000 0.000000 1.000000
vn -0.000000 0.000000 1.000000
vn -0.000000 0.000000 1.000000
vn 0.000000 -0.844433 0.535661
vn 0.000000 -0.844433 0.535661
vn 0.000000 -0.844433 0.535661
vn 0.000000 -0.844433 0.535661
vn 1.000000 0.000038 0.000000
vn 1.000000 0.000038 0.000000
vn 1.000000 0.000038 0.000000
vn 1.000000 0.000038 0.000000
vn -0.000000 1.000000 0.000000
vn -0.000000 1.000000 0.000000
vn -0.000000 1.000000 0.000000
vn -0.000000 1.000000 0.000000
vn -1.000000 -0.000019 0.000000
vn -1.000000 -0.000019 0.000000
vn -1.000000 -0.000019 0.000000
vn -1.000000 -0.000019 0.000000
vn 1.000000 0.000000 0.000000
vn 1.000000 0.000000 0.000000
vn 1.000000 0.000000 0.000000
vn 1.000000 0.000000 0.000000
vn -1.000000 -0.000001 0.000000
vn -1.000000 -0.000001 0.000000
vn -1.000000 -0.000001 0.000000
vn -1.000000 -0.000001 0.000000
vn 1.000000 0.000000 0.000000
vn 1.000000 0.000000 0.000000
vn 1.000000 0.000000 0.000000
vn 1.000000 0.000000 0.000000
vn -1.000000 0.000019 0.000000
vn -1.000000 0.000019 0.000000
vn -1.000000 0.000019 0.000000
vn -1.000000 0.000019 0.000000
vn 0.000000 -1.000000 0.000000
vn 0.000000 -1.000000 0.000000
vn 0.000000 -1.000000 0.000000
vn 0.000000 -1.000000 0.000000
vn 0.004010 0.700338 0.713801
vn 0.004010 0.700338 0.713801
vn 0.004010 0.700338 0.713801
vn 0.004010 0.700338 0.713801
vn 0.006227 0.042393 0.999082
vn 0.006227 0.042393 0.999082
vn 0.006227 0.042393 0.999082
vn 0.006227 0.042393 0.999082
s off
g Mostrador1
usemtl initialShadingGroup
f 32/30/1 29/27/2 1/101/3 2/2/4
s 1
f 3/3/5 30/28/6 31/29/7 4/4/8
s off
f 1/5/9 3/3/10 4/4/11 2/6/12
s 2
f 2/121/13 4/4/14 31/29/15 32/115/16
s 3
f 3/3/17 1/1/18 29/111/19 30/28/20
f 10/8/21 9/98/22 5/100/23 6/80/24
s 1
f 10/8/25 6/80/26 7/81/27 11/9/28
s 2
f 12/118/29 11/9/30 7/81/31 8/82/32
s off
f 8/120/33 5/83/34 9/7/35 12/10/36
s 3
f 14/12/37 13/99/38 9/98/22 10/8/21
s 1
f 14/12/39 10/8/25 11/9/28 15/13/40
s 2
f 16/119/41 15/13/42 11/9/30 12/118/29
s off
f 46/43/43 57/55/44 58/137/45 47/45/46
s 3
f 18/16/47 17/106/48 13/99/38 14/12/37
s 1
f 18/16/49 14/12/39 15/13/40 19/17/50
s 2
f 20/116/51 19/17/52 15/13/42 16/119/41
s off
f 20/18/53 16/14/54 13/11/55 17/15/56
s 3
f 22/20/57 21/135/58 17/106/48 18/16/47
s 1
f 22/20/59 18/16/49 19/17/50 23/21/60
s 2
f 24/117/61 23/21/62 19/17/52 20/116/51
s off
f 50/48/63 86/157/64 87/155/65 48/47/66
s 3
f 26/24/67 25/134/68 21/135/58 22/20/57
s 1
f 26/24/69 22/20/59 23/21/60 27/25/70
s 2
f 28/114/71 27/25/72 23/21/62 24/117/61
s off
f 24/22/73 21/19/74 25/23/75 28/26/76
s 3
f 30/28/20 29/111/19 25/134/68 26/24/67
s 1
f 30/28/6 26/24/69 27/25/70 31/29/7
s 2
f 32/115/16 31/29/15 27/25/72 28/114/71
s off
f 54/52/77 55/53/78 53/50/79 52/51/80
s 7
f 16/14/81 33/133/82 76/76/83 56/54/84
s 2
f 16/119/41 12/118/29 35/132/85 33/32/86
s 8
f 12/10/87 9/7/88 36/34/89 59/136/90
s 3
f 9/98/22 13/99/38 34/108/91 36/97/92
s 9
f 37/36/93 88/156/94 84/160/95 24/22/96
s 2
f 24/117/61 20/116/51 39/128/97 37/127/98
s 10
f 20/18/99 81/162/100 85/158/101 39/37/102
s 3
f 17/106/48 21/135/58 38/105/103 40/104/104
s 11
f 41/40/105 42/39/106 29/27/107 32/30/108
s 2
f 32/115/16 28/114/71 43/124/109 41/125/110
s 12
f 28/26/111 25/23/112 44/42/113 43/41/114
s 3
f 25/134/68 29/111/19 42/112/115 44/107/116
s 13
f 57/55/117 56/54/118 76/76/119 77/77/120
s off
f 58/137/121 59/136/122 36/34/123 47/45/124
s 3
f 36/97/92 34/108/91 46/109/125 47/96/126
s off
f 48/47/127 87/155/128 88/156/129 37/36/130
s 2
f 37/127/98 39/128/97 50/129/131 48/126/132
s off
f 39/37/133 85/158/134 86/157/135 50/48/136
s 3
f 40/104/104 38/105/103 49/102/137 51/103/138
s 11
f 52/51/139 53/50/140 42/39/106 41/40/105
s 2
f 41/125/110 43/124/109 54/123/141 52/122/142
s 12
f 43/41/114 44/42/113 55/53/143 54/52/144
s 3
f 44/107/116 42/112/115 53/113/145 55/110/146
s 8
f 12/10/87 59/136/90 78/138/147 35/33/148
s 13
f 57/55/117 46/43/149 34/31/150 56/54/118
s 7
f 16/14/81 56/54/84 34/31/151 13/11/152
s off
f 60/56/153 61/68/154 69/71/155 68/87/156
f 61/68/157 60/56/158 63/62/159 62/65/160
f 62/65/161 63/62/162 72/60/163 73/74/164
f 64/93/165 65/94/166 71/61/167 70/92/168
f 65/59/169 64/66/170 67/75/171 66/95/172
f 66/57/173 67/90/174 74/91/175 75/85/176
f 68/58/177 69/88/178 73/86/179 72/84/180
f 70/69/181 71/89/182 75/63/183 74/72/184
f 63/62/185 60/56/186 65/59/187 66/95/188
f 60/56/189 68/87/190 71/61/191 65/94/192
f 68/58/193 72/84/194 75/63/195 71/89/196
f 72/60/197 63/62/198 66/57/199 75/85/200
s 14
f 5/73/201 8/64/202 61/68/203 62/65/204
f 8/64/202 7/67/205 69/71/206 61/68/203
f 7/67/205 6/70/207 73/74/208 69/71/206
f 6/70/207 5/73/201 62/65/204 73/74/208
s off
f 67/75/209 64/66/210 70/69/211 74/72/212
s 13
f 77/77/120 76/76/119 33/133/213 45/131/214
s 15
f 35/33/215 78/138/216 79/78/217 80/79/218
f 80/79/218 79/78/217 77/77/219 45/131/220
s off
f 33/32/221 35/132/222 80/130/223 45/44/224
s 10
f 20/18/99 17/15/225 40/38/226 81/162/100
s off
f 82/161/227 81/162/228 40/38/229 51/49/230
f 83/159/231 82/161/232 51/49/233 49/46/234
f 84/160/235 83/159/236 49/46/237 38/35/238
s 9
f 24/22/96 84/160/95 38/35/239 21/19/240
s off
f 90/147/241 89/148/242 91/149/243 92/150/244
f 93/151/245 90/147/246 92/150/247 94/152/248
f 95/153/249 93/151/250 94/152/251 96/154/252
f 86/144/253 85/164/254 89/148/255 90/147/256
f 85/143/257 81/166/258 91/149/259 89/148/260
f 81/139/261 82/140/262 92/150/263 91/149/264
f 87/145/265 86/144/266 90/147/267 93/151/268
f 82/140/269 83/141/270 94/152/271 92/150/272
f 88/146/273 87/145/274 93/151/275 95/153/276
f 83/141/277 84/165/278 96/154/279 94/152/280
f 84/142/281 88/163/282 95/153/283 96/154/284
f 59/136/285 58/137/286 79/78/287 78/138/288
f 58/137/289 57/55/290 77/77/291 79/78/292
