# This file uses centimeters as units for non-parametric coordinates.

mtllib FrameDoor.mtl
g default
v 0.873358 -0.008660 -16.698683
v 1.601300 -0.008660 -16.622932
v 0.984696 2.076903 -16.768770
v 1.390990 2.076903 -16.622932
v 0.984696 2.076903 -17.622932
v 1.576077 2.076903 -17.622932
v 0.873358 -0.008660 -17.622932
v 1.601300 -0.008660 -17.622932
v 0.868045 4.145172 -16.745480
v 1.595986 4.145172 -16.745480
v 1.595986 4.145172 -17.622932
v 0.868045 4.145172 -17.622932
v 1.199217 6.218600 -16.622932
v 1.927159 6.218600 -16.987852
v 1.927159 6.218600 -17.987852
v 1.199217 6.218600 -17.622932
v 0.749982 7.481647 -16.622932
v 1.375502 7.853968 -16.676113
v 1.375502 7.853968 -17.622932
v 0.749982 7.481647 -17.622932
v -0.456859 8.042836 -16.851112
v -0.140738 8.698554 -16.892361
v -0.140738 8.698554 -17.622932
v -0.456859 8.042836 -17.622932
v -1.908018 8.224003 -16.899845
v -1.893357 8.951797 -16.753593
v -1.893357 8.951797 -17.622932
v -1.908018 8.224003 -17.622932
v -3.380569 8.025126 -16.836414
v -3.733187 8.661962 -16.709030
v -3.733187 8.661962 -17.622932
v -3.380569 8.025126 -17.622932
v -4.603711 7.470519 -16.719515
v -5.170811 7.926914 -16.719515
v -5.170811 7.926914 -17.622932
v -4.603711 7.470519 -17.622932
v -4.964542 6.117741 -16.792023
v -5.692377 6.130216 -16.792023
v -5.692377 6.130216 -17.622932
v -4.964542 6.117741 -17.622932
v -4.608516 4.508499 -16.622932
v -5.336351 4.520974 -16.473026
v -5.336351 4.520974 -17.622932
v -4.608516 4.508499 -17.622932
v -4.608516 2.301131 -16.513800
v -5.088816 2.313606 -16.545916
v -5.133358 2.313606 -17.622932
v -4.608516 2.301131 -17.622932
v -4.665480 -0.005925 -16.513800
v -5.393315 0.006550 -16.513800
v -5.393315 0.006550 -17.622932
v -4.665480 -0.005925 -17.622932
vt 0.095120 0.044190
vt 0.133005 0.037630
vt 0.135845 0.152471
vt 0.158229 0.144126
vt 0.093017 0.171883
vt 0.064259 0.187284
vt 0.312024 0.030563
vt 0.011374 0.082282
vt 0.310461 0.092886
vt 0.359419 0.099224
vt 0.179877 0.015965
vt 0.211041 0.122744
vt 0.046465 0.062144
vt 0.187796 0.255629
vt 0.221020 0.239444
vt 0.113773 0.294280
vt 0.146529 0.274576
vt 0.251186 0.360739
vt 0.282524 0.329989
vt 0.157675 0.393022
vt 0.200001 0.377965
vt 0.289238 0.433289
vt 0.322591 0.404383
vt 0.244149 0.530589
vt 0.261703 0.496449
vt 0.351341 0.492672
vt 0.370783 0.464223
vt 0.310335 0.553328
vt 0.333209 0.526632
vt 0.418660 0.552242
vt 0.442664 0.524528
vt 0.367294 0.608573
vt 0.392797 0.581443
vt 0.484853 0.612487
vt 0.514926 0.591673
vt 0.430254 0.669033
vt 0.452912 0.638373
vt 0.548030 0.671556
vt 0.571682 0.635344
vt 0.511658 0.758911
vt 0.527648 0.730265
vt 0.618262 0.716515
vt 0.646168 0.687903
vt 0.585468 0.796919
vt 0.600686 0.759462
vt 0.701406 0.768454
vt 0.717146 0.734829
vt 0.651686 0.840987
vt 0.673979 0.810643
vt 0.805042 0.824973
vt 0.819061 0.801647
vt 0.759192 0.904793
vt 0.773456 0.878917
vt 0.296847 0.093638
vt 0.931266 0.869648
vt 0.865649 0.979065
vt 0.877564 0.942722
vt 0.908005 0.896923
vt 0.249620 0.098212
vt 0.856312 0.755008
vt 0.963841 0.822260
vt 0.753480 0.684792
vt 0.674642 0.650645
vt 0.603328 0.595499
vt 0.542582 0.550780
vt 0.472801 0.489282
vt 0.403278 0.438719
vt 0.359996 0.366762
vt 0.326614 0.296333
vt 0.261829 0.215266
vt 0.289877 0.021679
vt 0.242649 0.026253
vt 0.361109 0.031794
vt 0.501168 0.700099
vt 0.226900 0.450950
vt 0.610148 0.604471
vt 0.368822 0.383892
vt 0.476744 0.732193
vt 0.193714 0.462777
vn -0.191725 0.011941 0.981376
vn -0.191725 0.011941 0.981376
vn -0.160203 0.019122 0.986899
vn -0.159889 0.019194 0.986948
vn -0.017137 -0.999853 0.000000
vn -0.017137 -0.999853 0.000000
vn -0.017137 -0.999853 0.000000
vn -0.017137 -0.999853 0.000000
vn 0.000000 0.000000 -1.000000
vn 0.000000 0.000000 -1.000000
vn 0.000000 0.000000 -1.000000
vn 0.000000 0.000000 -1.000000
vn 0.000000 -1.000000 0.000000
vn 0.000000 -1.000000 0.000000
vn 0.000000 -1.000000 0.000000
vn 0.000000 -1.000000 0.000000
vn 0.994175 0.056138 0.092004
vn 0.994175 0.056138 0.092004
vn 0.995465 0.004426 0.095022
vn 0.995466 0.005432 0.094966
vn -0.998578 0.053309 0.000000
vn -0.998578 0.053309 0.000000
vn -1.000000 -0.000163 0.000000
vn -1.000000 -0.000547 0.000000
vn 0.099102 0.003930 0.995070
vn 0.078057 0.006058 0.996931
vn 0.993101 -0.107716 0.046349
vn 0.993449 -0.101931 0.051667
vn -0.126229 -0.024155 -0.991707
vn -0.136592 -0.026138 -0.990283
vn -0.998293 0.058413 0.000000
vn -0.998427 0.056074 0.000000
vn 0.263392 -0.006929 0.964664
vn 0.266483 -0.006335 0.963819
vn 0.998164 0.060562 0.000000
vn 0.997664 0.068319 0.000000
vn -0.253937 -0.013388 -0.967128
vn -0.252611 -0.017403 -0.967411
vn -0.998861 -0.047725 0.000000
vn -0.999072 -0.043069 0.000000
vn 0.142392 0.068368 0.987446
vn 0.099580 0.087041 0.991215
vn 0.947542 0.319632 0.000000
vn 0.947542 0.319632 0.000000
vn -0.126471 0.013633 -0.991877
vn -0.158064 0.017039 -0.987282
vn -0.942179 -0.335110 0.000000
vn -0.942179 -0.335110 0.000000
vn -0.032358 0.046244 0.998406
vn -0.023683 0.024137 0.999428
vn 0.486625 0.873611 0.000000
vn 0.486625 0.873611 0.000000
vn 0.322500 0.946570 0.000000
vn 0.324886 0.945753 0.000000
vn 0.000000 0.000000 -1.000000
vn 0.000000 0.000000 -1.000000
vn -0.421649 -0.906759 0.000000
vn -0.421649 -0.906759 0.000000
vn -0.291068 -0.956702 0.000000
vn -0.281797 -0.959474 0.000000
vn 0.038270 -0.131615 0.990562
vn 0.038798 -0.132911 0.990368
vn -0.018351 0.999832 0.000000
vn -0.023299 0.999729 0.000000
vn 0.000000 0.000000 -1.000000
vn 0.000000 0.000000 -1.000000
vn 0.007070 -0.999975 0.000000
vn 0.006693 -0.999978 0.000000
vn 0.063976 -0.116916 0.991079
vn 0.062707 -0.133580 0.989052
vn -0.299889 0.953974 0.000000
vn -0.300739 0.953707 0.000000
vn -0.000000 0.000000 -1.000000
vn -0.000000 0.000000 -1.000000
vn 0.282880 -0.959155 0.000000
vn 0.277155 -0.960825 0.000000
vn 0.024264 -0.049772 0.998466
vn 0.025232 -0.049968 0.998432
vn -0.455240 0.890369 0.000000
vn -0.455240 0.890369 0.000000
vn 0.000000 0.000000 -1.000000
vn 0.000000 0.000000 -1.000000
vn 0.412959 -0.910749 0.000000
vn 0.412959 -0.910749 0.000000
vn 0.047205 0.069892 0.996437
vn 0.046263 0.068202 0.996598
vn -0.960354 0.278783 0.000000
vn -0.960354 0.278783 0.000000
vn -0.999500 0.031608 0.000000
vn -0.999799 0.020062 0.000000
vn 0.000001 0.000000 -1.000000
vn 0.000001 0.000000 -1.000000
vn 0.966219 -0.257723 0.000000
vn 0.966219 -0.257723 0.000000
vn 0.999963 0.008606 0.000000
vn 0.999988 0.004923 0.000000
vn 0.101023 0.096197 0.990222
vn 0.100454 0.082527 0.991513
vn -0.988990 -0.147495 0.012000
vn -0.989419 -0.144547 0.012512
vn 0.000000 0.000000 -1.000000
vn 0.000000 0.000000 -1.000000
vn 0.996764 0.080387 0.000000
vn 0.996344 0.085434 0.000000
vn 0.034780 0.011319 0.999331
vn 0.033607 0.011276 0.999372
vn -0.999730 0.011518 0.020185
vn -0.999738 0.010788 0.020184
vn 0.000000 0.000000 -1.000000
vn 0.000000 0.000000 -1.000000
vn 0.999914 -0.013125 0.000000
vn 0.999916 -0.012928 0.000000
vn -0.026386 0.009025 0.999611
vn -0.026386 0.009025 0.999611
vn -0.992380 0.121541 0.020220
vn -0.992380 0.121541 0.020220
vn 0.000000 0.000000 -1.000000
vn 0.000000 0.000000 -1.000000
vn 0.999695 -0.024684 0.000000
vn 0.999695 -0.024684 0.000000
s 1
g DoorRound
usemtl initialShadingGroup
f 1/1/1 2/2/2 4/4/3 3/3/4
s off
f 49/54/5 50/59/6 51/72/7 52/71/8
s 2
f 5/5/9 6/6/10 8/8/11 7/13/12
s off
f 7/7/13 8/73/14 2/10/15 1/9/16
s 3
f 2/2/17 8/11/18 6/12/19 4/4/20
s 4
f 7/13/21 1/1/22 3/3/23 5/5/24
s 1
f 3/3/4 4/4/3 10/15/25 9/14/26
s 3
f 4/4/20 6/12/19 11/70/27 10/15/28
s 2
f 6/6/10 5/5/9 12/17/29 11/16/30
s 4
f 5/5/24 3/3/23 9/14/31 12/17/32
s 1
f 9/14/26 10/15/25 14/19/33 13/18/34
s 3
f 10/15/28 11/70/27 15/69/35 14/19/36
s 2
f 11/16/30 12/17/29 16/21/37 15/20/38
s 4
f 12/17/32 9/14/31 13/18/39 16/21/40
s 1
f 13/18/34 14/19/33 18/23/41 17/22/42
s 3
f 14/19/36 15/69/35 19/68/43 18/23/44
s 2
f 15/20/38 16/21/37 20/75/45 19/79/46
s 4
f 16/21/40 13/18/39 17/22/47 20/75/48
s 1
f 17/22/42 18/23/41 22/27/49 21/26/50
s 5
f 18/23/51 19/77/52 23/67/53 22/27/54
s 2
f 19/24/46 20/25/45 24/29/55 23/28/56
s 6
f 20/25/57 17/22/58 21/26/59 24/29/60
s 1
f 21/26/50 22/27/49 26/31/61 25/30/62
s 5
f 22/27/54 23/67/53 27/66/63 26/31/64
s 2
f 23/28/56 24/29/55 28/33/65 27/32/66
s 6
f 24/29/60 21/26/59 25/30/67 28/33/68
s 1
f 25/30/62 26/31/61 30/35/69 29/34/70
s 5
f 26/31/64 27/66/63 31/65/71 30/35/72
s 2
f 27/32/66 28/33/65 32/37/73 31/36/74
s 6
f 28/33/68 25/30/67 29/34/75 32/37/76
s 1
f 29/34/70 30/35/69 34/39/77 33/38/78
s 5
f 30/35/72 31/65/71 35/64/79 34/39/80
s 2
f 31/36/74 32/37/73 36/74/81 35/78/82
s 6
f 32/37/76 29/34/75 33/38/83 36/74/84
s 1
f 33/38/78 34/39/77 38/43/85 37/42/86
s 7
f 34/39/87 35/76/88 39/63/89 38/43/90
s 2
f 35/40/82 36/41/81 40/45/91 39/44/92
s 8
f 36/41/93 33/38/94 37/42/95 40/45/96
s 1
f 37/42/86 38/43/85 42/47/97 41/46/98
s 7
f 38/43/90 39/63/89 43/62/99 42/47/100
s 2
f 39/44/92 40/45/91 44/49/101 43/48/102
s 8
f 40/45/96 37/42/95 41/46/103 44/49/104
s 1
f 41/46/98 42/47/97 46/51/105 45/50/106
s 7
f 42/47/100 43/62/99 47/60/107 46/51/108
s 2
f 43/48/102 44/49/101 48/53/109 47/52/110
s 8
f 44/49/104 41/46/103 45/50/111 48/53/112
s 1
f 45/50/106 46/51/105 50/55/113 49/58/114
s 7
f 46/51/108 47/60/107 51/61/115 50/55/116
s 2
f 47/52/110 48/53/109 52/57/117 51/56/118
s 8
f 48/53/112 45/50/111 49/58/119 52/57/120
